<?xml version="1.0" standalone="no"?>
<!DOCTYPE svg PUBLIC "-//W3C//DTD SVG 20010904//EN"
 "http://www.w3.org/TR/2001/REC-SVG-20010904/DTD/svg10.dtd">
<svg version="1.0" xmlns="http://www.w3.org/2000/svg"
 width="360.000000pt" height="323.000000pt" viewBox="0 0 360.000000 323.000000"
 preserveAspectRatio="xMidYMid meet">

<g transform="translate(0.000000,323.000000) scale(0.100000,-0.100000)"
fill="#000000" stroke="none">
<path d="M1283 3128 c-2 -5 -14 -8 -27 -8 -42 0 -125 -51 -176 -108 -40 -45
-150 -232 -150 -256 0 -15 48 -4 53 12 12 37 94 174 129 216 53 62 124 95 213
97 102 2 649 -12 654 -17 3 -3 -11 -18 -31 -34 -58 -48 -142 -167 -208 -295
-98 -188 -161 -307 -183 -344 -17 -28 -22 -31 -27 -17 -5 16 -8 15 -25 -4 -11
-12 -49 -37 -85 -56 -102 -53 -142 -77 -183 -108 -57 -44 -37 -43 30 1 88 58
174 106 180 100 14 -14 -12 -39 -100 -98 -52 -34 -94 -68 -93 -75 1 -11 -175
-131 -283 -192 -59 -34 -33 -41 30 -9 60 32 64 27 7 -10 -55 -35 -27 -45 32
-12 40 22 51 44 28 51 -7 3 43 37 110 77 l123 73 59 -22 c32 -12 64 -20 70
-18 11 3 51 74 138 243 25 50 87 167 138 261 51 93 96 179 100 190 35 92 189
261 275 301 44 21 58 33 56 47 -1 15 -10 19 -38 19 -19 0 -41 -3 -48 -7 -16
-10 -497 -9 -649 1 -63 5 -116 5 -119 1z"/>
<path d="M910 2741 c0 -7 13 -29 29 -49 16 -20 86 -116 156 -212 150 -206 164
-224 169 -219 3 4 -76 114 -281 393 -40 55 -73 93 -73 87z"/>
<path d="M872 2670 c-13 -27 -29 -87 -37 -132 -8 -45 -20 -98 -26 -117 -13
-40 -7 -47 74 -84 26 -12 47 -24 47 -28 0 -3 -28 -11 -62 -17 -69 -13 -100
-32 -52 -32 39 0 221 38 246 51 27 15 24 -16 -4 -36 -20 -13 -21 -17 -8 -25 8
-5 19 -11 24 -13 17 -6 -5 -27 -54 -52 -45 -23 -60 -25 -184 -25 l-134 0 -31
-49 c-20 -30 -42 -51 -57 -55 -29 -8 -23 -26 9 -27 12 0 16 -3 10 -6 -27 -10
-11 -23 30 -23 79 0 267 66 253 88 -2 4 32 27 77 52 45 24 99 54 119 67 22 13
40 19 43 13 3 -6 1 -10 -4 -10 -6 0 -11 -4 -11 -9 0 -13 37 -1 52 17 11 13 10
15 -4 9 -22 -8 -22 -4 -2 34 13 27 11 79 -3 65 -3 -3 -13 8 -22 24 -12 23
-232 328 -260 362 -4 4 -17 -15 -29 -42z m108 -199 c0 -24 -4 -27 -57 -36 -35
-5 -44 -4 -49 10 -4 9 -4 18 -2 21 4 4 65 18 101 23 4 1 7 -8 7 -18z"/>
<path d="M1056 2608 c77 -93 194 -264 194 -286 0 -5 9 -19 19 -31 l20 -23 107
73 c58 40 115 86 125 103 20 32 20 53 0 48 -6 -1 -11 5 -11 13 0 9 -9 15 -23
15 -12 0 -72 22 -132 49 -61 27 -164 66 -230 86 -66 21 -124 41 -129 46 -6 5
-14 9 -18 9 -5 0 30 -46 78 -102z"/>
<path d="M3053 2568 c-12 -15 -54 -108 -48 -108 7 0 67 111 62 116 -2 2 -9 -1
-14 -8z"/>
<path d="M2963 2534 c-13 -6 -623 -670 -623 -679 0 -20 49 30 291 297 151 167
291 322 313 345 21 24 37 43 35 42 -2 0 -9 -3 -16 -5z"/>
<path d="M2930 2413 c-19 -27 -25 -40 -14 -31 18 16 59 78 51 78 -2 0 -19 -21
-37 -47z"/>
<path d="M756 2435 c-9 -26 -7 -32 5 -12 6 10 9 21 6 23 -2 3 -7 -2 -11 -11z"/>
<path d="M2879 2343 c-13 -16 -12 -17 4 -4 16 13 21 21 13 21 -2 0 -10 -8 -17
-17z"/>
<path d="M3203 2245 c0 -22 2 -30 4 -17 2 12 2 30 0 40 -3 9 -5 -1 -4 -23z"/>
<path d="M3206 2165 c-25 -159 -44 -210 -120 -313 -45 -61 -221 -216 -235
-208 -5 3 -6 16 -4 29 3 14 -2 29 -11 36 -14 12 -16 10 -16 -11 0 -13 -11 -35
-24 -47 -34 -32 -80 -22 -145 29 -57 45 -66 49 -50 19 7 -14 7 -19 0 -15 -12
8 -45 -39 -37 -52 3 -5 39 -19 81 -33 41 -13 75 -27 75 -30 0 -11 -95 -29
-154 -29 -67 0 -141 22 -175 52 l-26 23 25 -28 c14 -16 42 -38 62 -50 21 -11
38 -24 38 -28 0 -16 33 -39 55 -39 19 0 37 -20 88 -97 203 -309 252 -400 277
-515 7 -32 17 -58 21 -58 4 0 23 31 42 68 41 80 144 253 197 332 57 85 114
190 128 237 23 78 -11 176 -117 336 -22 34 -23 42 -13 69 8 21 8 36 0 53 -9
19 -6 34 11 74 21 51 47 199 38 223 -2 7 -7 -5 -11 -27z"/>
<path d="M1083 2164 c-48 -28 -59 -43 -15 -20 30 16 70 45 62 46 -3 0 -24 -12
-47 -26z"/>
<path d="M954 2088 c-48 -36 -51 -43 -9 -18 49 28 63 40 48 40 -6 0 -23 -10
-39 -22z"/>
<path d="M874 2034 c-18 -14 -18 -15 4 -4 12 6 22 13 22 15 0 8 -5 6 -26 -11z"/>
<path d="M955 1988 c-57 -48 -80 -75 -58 -67 15 6 136 119 126 118 -4 0 -35
-23 -68 -51z"/>
<path d="M828 1988 c5 -5 16 -8 23 -6 8 3 3 7 -10 11 -17 4 -21 3 -13 -5z"/>
<path d="M690 1925 c-14 -8 -20 -14 -14 -15 5 0 19 7 30 15 24 18 16 19 -16 0z"/>
<path d="M2256 1909 c34 -27 88 -61 74 -46 -13 13 -101 77 -106 77 -4 0 11
-14 32 -31z"/>
<path d="M2550 1886 c0 -8 64 -38 134 -62 38 -13 90 -36 115 -50 45 -27 46
-27 26 -3 l-20 23 28 -17 c40 -25 33 -3 -10 32 -44 37 -171 81 -231 81 -23 0
-42 -2 -42 -4z"/>
<path d="M2070 1855 c13 -14 26 -25 28 -25 3 0 -5 11 -18 25 -13 14 -26 25
-28 25 -3 0 5 -11 18 -25z"/>
<path d="M2408 1821 c-29 -27 -50 -52 -47 -55 12 -13 54 -11 51 2 -1 8 11 29
28 48 27 31 38 54 26 54 -3 0 -29 -22 -58 -49z"/>
<path d="M2125 1810 c10 -11 20 -20 23 -20 3 0 -3 9 -13 20 -10 11 -20 20 -23
20 -3 0 3 -9 13 -20z"/>
<path d="M2510 1821 c0 -5 5 -13 10 -16 6 -3 10 -2 10 4 0 5 -4 13 -10 16 -5
3 -10 2 -10 -4z"/>
<path d="M2349 1794 c-23 -25 -23 -26 -2 -15 23 12 38 29 31 37 -3 2 -15 -8
-29 -22z"/>
<path d="M2458 1761 c-16 -22 -28 -43 -28 -48 0 -4 21 -19 46 -33 l46 -24 19
23 c11 13 19 30 19 38 0 17 -51 83 -65 83 -5 0 -22 -18 -37 -39z"/>
<path d="M2540 1783 c0 -5 10 -18 23 -29 l22 -19 -20 25 c-11 14 -21 27 -22
29 -2 2 -3 0 -3 -6z"/>
<path d="M2170 1777 c0 -2 15 -16 33 -33 l32 -29 -29 33 c-28 30 -36 37 -36
29z"/>
<path d="M2260 1695 c13 -14 26 -25 28 -25 3 0 -5 11 -18 25 -13 14 -26 25
-28 25 -3 0 5 -11 18 -25z"/>
<path d="M2320 1645 c13 -14 26 -25 28 -25 3 0 -5 11 -18 25 -13 14 -26 25
-28 25 -3 0 5 -11 18 -25z"/>
<path d="M1852 1370 c-58 -35 -205 -149 -219 -170 -30 -43 15 -18 141 79 126
97 126 97 126 105 0 11 -14 7 -48 -14z"/>
<path d="M2110 1234 c-30 -58 -63 -112 -72 -121 -10 -9 -18 -26 -18 -38 0 -28
39 -157 51 -169 5 -6 9 -18 9 -27 0 -9 13 -47 29 -85 16 -38 48 -114 71 -169
22 -55 51 -120 63 -145 l22 -45 80 3 c44 2 122 7 174 12 52 5 98 7 103 4 9 -6
60 20 101 50 39 29 83 102 96 161 21 95 0 198 -66 325 -24 47 -54 98 -68 114
l-24 30 -232 -12 c-164 -8 -237 -8 -246 -1 -8 7 -13 46 -15 114 l-3 104 -55
-105z"/>
<path d="M1984 1269 c12 -95 26 -124 19 -39 -3 41 -10 80 -15 85 -7 7 -8 -9
-4 -46z"/>
<path d="M1506 1154 c-10 -25 1 -29 14 -5 6 12 7 21 1 21 -5 0 -12 -7 -15 -16z"/>
<path d="M1587 1164 c-4 -4 -7 -14 -7 -23 0 -11 3 -12 11 -4 6 6 10 16 7 23
-2 6 -7 8 -11 4z"/>
<path d="M2012 1130 c0 -14 2 -19 5 -12 2 6 2 18 0 25 -3 6 -5 1 -5 -13z"/>
<path d="M1533 1090 c-22 -71 -36 -278 -30 -440 6 -131 5 -161 -7 -173 -10
-10 -39 -15 -94 -15 -124 -2 -248 -36 -283 -78 -13 -16 -12 -17 11 -10 43 12
196 26 297 27 53 0 105 6 115 12 17 11 18 32 17 337 -1 179 -4 336 -8 350 -7
24 -8 24 -18 -10z"/>
<path d="M1102 443 c-7 -3 -17 -13 -22 -24 -8 -15 -7 -19 4 -19 9 0 20 9 26
21 13 23 11 28 -8 22z"/>
<path d="M1926 438 c-129 -9 -274 -32 -290 -48 -20 -20 5 -21 96 -6 51 9 143
19 203 23 109 5 110 5 134 -21 21 -23 32 -26 87 -26 46 0 63 4 68 15 3 9 18
15 37 15 26 0 29 2 19 14 -25 32 -170 45 -354 34z"/>
<path d="M2110 331 c0 -5 7 -14 15 -21 8 -7 15 -18 15 -24 1 -17 38 -58 48
-52 5 3 12 20 15 38 3 18 8 41 12 51 6 15 0 17 -49 17 -31 0 -56 -4 -56 -9z"/>
<path d="M1105 273 c20 -19 88 -57 81 -45 -4 7 -26 22 -49 33 -23 12 -37 17
-32 12z"/>
<path d="M1795 230 c-4 -6 7 -10 25 -10 18 0 29 4 25 10 -3 6 -15 10 -25 10
-10 0 -22 -4 -25 -10z"/>
<path d="M2285 219 c-43 -13 -336 -28 -570 -30 -144 -2 -182 -4 -135 -9 206
-24 750 6 750 41 0 11 -5 10 -45 -2z"/>
<path d="M1273 125 c21 -18 58 -38 82 -44 50 -12 773 -16 790 -3 16 11 56 72
48 72 -4 0 -23 -11 -43 -25 l-37 -26 -384 3 -384 3 -55 27 -55 27 38 -34z"/>
</g>
</svg>
