<?xml version="1.0" encoding="UTF-8"?>
<!DOCTYPE svg PUBLIC "-//W3C//DTD SVG 1.1//EN" "http://www.w3.org/Graphics/SVG/1.1/DTD/svg11.dtd">
<svg xmlns="http://www.w3.org/2000/svg" version="1.1" width="64px" height="64px" style="shape-rendering:geometricPrecision; text-rendering:geometricPrecision; image-rendering:optimizeQuality; fill-rule:evenodd; clip-rule:evenodd" xmlns:xlink="http://www.w3.org/1999/xlink">
<g><path style="opacity:0.81" fill="#000000" d="M 63.5,14.5 C 63.5,27.8333 63.5,41.1667 63.5,54.5C 42.1667,54.5 20.8333,54.5 -0.5,54.5C -0.5,41.1667 -0.5,27.8333 -0.5,14.5C 1.16667,14.5 2.83333,14.5 4.5,14.5C 4.28649,12.8561 4.61983,11.3561 5.5,10C 14.6774,7.32066 23.3441,8.48733 31.5,13.5C 39.9141,8.28643 48.7474,7.28643 58,10.5C 58.49,11.7932 58.6567,13.1266 58.5,14.5C 60.1667,14.5 61.8333,14.5 63.5,14.5 Z M 13.5,11.5 C 18.9737,11.7986 23.9737,13.4653 28.5,16.5C 29.8333,27.1667 29.8333,37.8333 28.5,48.5C 21.7657,45.8503 14.7657,44.8503 7.5,45.5C 7.3335,34.8281 7.50016,24.1615 8,13.5C 9.94828,12.8906 11.7816,12.224 13.5,11.5 Z M 47.5,11.5 C 50.0644,11.9787 52.5644,12.6453 55,13.5C 55.6667,24.5 55.6667,35.5 55,46.5C 47.983,44.8483 41.1497,45.5149 34.5,48.5C 33.1667,37.8333 33.1667,27.1667 34.5,16.5C 38.5539,13.8201 42.8872,12.1534 47.5,11.5 Z M 2.5,17.5 C 4.47697,28.1158 5.14363,39.1158 4.5,50.5C 7.86514,50.0463 11.1985,49.3797 14.5,48.5C 17.9116,49.0196 21.245,49.8529 24.5,51C 17.1742,51.4997 9.8409,51.6663 2.5,51.5C 2.5,40.1667 2.5,28.8333 2.5,17.5 Z M 58.5,17.5 C 60.4777,28.4507 61.1444,39.784 60.5,51.5C 53.1591,51.6663 45.8258,51.4997 38.5,51C 41.755,49.8529 45.0884,49.0196 48.5,48.5C 51.8015,49.3797 55.1349,50.0463 58.5,50.5C 58.5,39.5 58.5,28.5 58.5,17.5 Z"/></g>
</svg>
