<?xml version="1.0" encoding="UTF-8"?>
<!DOCTYPE svg PUBLIC "-//W3C//DTD SVG 1.1//EN" "http://www.w3.org/Graphics/SVG/1.1/DTD/svg11.dtd">
<svg xmlns="http://www.w3.org/2000/svg" version="1.1" width="512px" height="512px" style="shape-rendering:geometricPrecision; text-rendering:geometricPrecision; image-rendering:optimizeQuality; fill-rule:evenodd; clip-rule:evenodd" xmlns:xlink="http://www.w3.org/1999/xlink">
<g><path style="opacity:0.933" fill="#000000" d="M 511.5,175.5 C 511.5,178.167 511.5,180.833 511.5,183.5C 487.062,208.438 462.395,233.272 437.5,258C 433.833,260 430.167,260 426.5,258C 419,250.5 411.5,243 404,235.5C 402.107,232.382 400.774,229.049 400,225.5C 399.667,215.833 399.333,206.167 399,196.5C 395.238,190.901 390.404,186.567 384.5,183.5C 383.205,184.098 381.872,184.598 380.5,185C 374.167,191.333 367.833,197.667 361.5,204C 359.487,205.257 357.321,206.091 355,206.5C 352.783,205.782 350.616,205.282 348.5,205C 254.473,299.361 160.139,393.361 65.5,487C 44.8164,498.331 25.9831,495.831 9,479.5C 5.00997,473.85 1.8433,467.85 -0.5,461.5C -0.5,455.167 -0.5,448.833 -0.5,442.5C 1.22734,436.379 4.06067,430.712 8,425.5C 101.333,332.167 194.667,238.833 288,145.5C 288.252,143.069 287.752,140.735 286.5,138.5C 287.154,136.885 287.654,135.218 288,133.5C 298.167,123.333 308.333,113.167 318.5,103C 308.704,93.9302 297.704,86.5968 285.5,81C 248.776,64.8861 212.276,48.3861 176,31.5C 172.385,22.272 175.552,17.272 185.5,16.5C 227.833,18.2716 270.166,20.1049 312.5,22C 339.07,25.1253 363.403,34.1253 385.5,49C 406.029,69.1949 426.195,89.6949 446,110.5C 446.667,113.167 446.667,115.833 446,118.5C 443.37,122.132 440.37,125.465 437,128.5C 436.21,131.634 436.543,134.634 438,137.5C 441.337,141.847 445.504,145.014 450.5,147C 461.225,147.097 471.891,147.763 482.5,149C 493.287,156.621 502.954,165.454 511.5,175.5 Z M 230.5,37.5 C 233.482,36.8351 236.648,36.5018 240,36.5C 266.557,37.1754 293.057,38.6754 319.5,41C 338.613,44.4795 356.28,51.4795 372.5,62C 389.667,79.1667 406.833,96.3333 424,113.5C 424.667,114.5 424.667,115.5 424,116.5C 417.084,126.537 416.75,136.871 423,147.5C 427.167,151.667 431.333,155.833 435.5,160C 438.126,162.146 441.126,163.479 444.5,164C 454.906,164.073 465.239,164.74 475.5,166C 480.801,170.3 485.801,174.966 490.5,180C 471,199.5 451.5,219 432,238.5C 426.966,233.801 422.3,228.801 418,223.5C 417.851,212.458 417.184,201.458 416,190.5C 409.749,176.742 399.249,168.409 384.5,165.5C 377.707,166.152 371.707,168.652 366.5,173C 362.667,176.833 358.833,180.667 355,184.5C 339.5,169 324,153.5 308.5,138C 318.667,127.833 328.833,117.667 339,107.5C 340.967,100.571 338.8,95.0706 332.5,91C 324.035,83.6018 315.035,76.9351 305.5,71C 280.715,59.2724 255.715,48.1057 230.5,37.5 Z M 300.5,157.5 C 312.414,167.91 323.914,178.91 335,190.5C 335.667,191.167 335.667,191.833 335,192.5C 241.5,286 148,379.5 54.5,473C 38.6983,480.398 26.5316,476.565 18,461.5C 15.0932,452.447 16.4266,444.114 22,436.5C 115.035,343.632 207.868,250.632 300.5,157.5 Z"/></g>
</svg>
