<?xml version="1.0" encoding="UTF-8"?>
<!DOCTYPE svg PUBLIC "-//W3C//DTD SVG 1.1//EN" "http://www.w3.org/Graphics/SVG/1.1/DTD/svg11.dtd">
<svg xmlns="http://www.w3.org/2000/svg" version="1.1" width="200px" height="200px" style="shape-rendering:geometricPrecision; text-rendering:geometricPrecision; image-rendering:optimizeQuality; fill-rule:evenodd; clip-rule:evenodd" xmlns:xlink="http://www.w3.org/1999/xlink">
<g><path style="opacity:0.899" fill="#000000" d="M 98.5,29.5 C 99.9217,29.7086 101.255,30.2086 102.5,31C 125.333,53.8333 148.167,76.6667 171,99.5C 171.758,101.769 171.591,103.936 170.5,106C 148.169,106.5 125.836,106.667 103.5,106.5C 103.5,111.167 103.5,115.833 103.5,120.5C 128.502,120.333 153.502,120.5 178.5,121C 179.804,121.804 180.471,122.971 180.5,124.5C 173.63,136.875 166.13,148.875 158,160.5C 153.427,165.869 147.594,168.703 140.5,169C 113.167,169.667 85.8333,169.667 58.5,169C 51.406,168.703 45.5726,165.869 41,160.5C 32.8699,148.875 25.3699,136.875 18.5,124.5C 18.5288,122.971 19.1955,121.804 20.5,121C 45.4978,120.5 70.4978,120.333 95.5,120.5C 95.3334,90.8315 95.5,61.1648 96,31.5C 96.9947,30.9341 97.828,30.2674 98.5,29.5 Z M 103.5,45.5 C 120.965,62.4649 138.299,79.6316 155.5,97C 138.17,97.4999 120.837,97.6666 103.5,97.5C 103.5,80.1667 103.5,62.8333 103.5,45.5 Z M 32.5,129.5 C 77.1716,129.167 121.838,129.5 166.5,130.5C 161.084,138.33 155.917,146.33 151,154.5C 148.92,156.123 146.754,157.623 144.5,159C 129.552,160.134 114.552,160.634 99.5,160.5C 84.4485,160.634 69.4485,160.134 54.5,159C 52.2462,157.623 50.0795,156.123 48,154.5C 42.8114,146.111 37.6447,137.777 32.5,129.5 Z"/></g>
</svg>
