<?xml version="1.0" encoding="UTF-8"?>
<!DOCTYPE svg PUBLIC "-//W3C//DTD SVG 1.1//EN" "http://www.w3.org/Graphics/SVG/1.1/DTD/svg11.dtd">
<svg xmlns="http://www.w3.org/2000/svg" version="1.1" width="512px" height="512px" style="shape-rendering:geometricPrecision; text-rendering:geometricPrecision; image-rendering:optimizeQuality; fill-rule:evenodd; clip-rule:evenodd" xmlns:xlink="http://www.w3.org/1999/xlink">
<g><path style="opacity:0.964" fill="#000000" d="M 184.5,31.5 C 190.718,32.0714 196.718,33.5714 202.5,36C 235.91,48.1367 269.244,60.47 302.5,73C 313.277,81.1505 317.277,91.9838 314.5,105.5C 353.168,105.333 391.835,105.5 430.5,106C 445.465,108.3 454.631,116.8 458,131.5C 458.667,203.833 458.667,276.167 458,348.5C 453.936,366.897 442.77,378.397 424.5,383C 389.502,383.5 354.502,383.667 319.5,383.5C 319.5,394.167 319.5,404.833 319.5,415.5C 336.503,415.333 353.503,415.5 370.5,416C 382.737,419.905 390.571,428.071 394,440.5C 394.667,451.167 394.667,461.833 394,472.5C 393.214,475.583 391.381,477.749 388.5,479C 344.167,479.167 299.833,479.333 255.5,479.5C 210.418,479.662 165.418,479.162 120.5,478C 118.959,476.421 117.792,474.587 117,472.5C 116.333,461.833 116.333,451.167 117,440.5C 120.421,428.08 128.254,419.913 140.5,416C 157.497,415.5 174.497,415.333 191.5,415.5C 191.5,404.833 191.5,394.167 191.5,383.5C 153.165,383.667 114.832,383.5 76.5,383C 64.2539,379.087 56.4205,370.92 53,358.5C 52.3333,276.5 52.3333,194.5 53,112.5C 54.8649,109.642 57.0315,107.142 59.5,105C 55.0804,89.848 59.747,78.5147 73.5,71C 110.454,57.2961 147.454,44.1294 184.5,31.5 Z M 183.5,54.5 C 187.319,54.605 190.986,55.4383 194.5,57C 226.423,68.8635 258.423,80.5302 290.5,92C 293.461,95.7627 292.461,98.096 287.5,99C 253.789,108.011 220.123,117.178 186.5,126.5C 151.745,117.311 117.079,107.811 82.5,98C 79.7424,94.8679 80.4091,92.5346 84.5,91C 117.791,79.2956 150.791,67.129 183.5,54.5 Z M 74.5,119.5 C 79.2436,120.52 83.9102,121.853 88.5,123.5C 89.3328,137.822 89.8328,152.155 90,166.5C 90.8558,170.544 92.5224,174.211 95,177.5C 95.3333,229.833 95.6667,282.167 96,334.5C 97.587,337.756 100.087,339.923 103.5,341C 205.89,341.993 308.223,341.66 410.5,340C 412,338.5 413.5,337 415,335.5C 415.992,274.418 415.659,213.418 414,152.5C 412.421,150.959 410.587,149.792 408.5,149C 377.168,148.5 345.835,148.333 314.5,148.5C 314.5,141.5 314.5,134.5 314.5,127.5C 351.835,127.333 389.168,127.5 426.5,128C 430.115,128.614 432.949,130.447 435,133.5C 436.657,203.776 436.99,274.109 436,344.5C 433.932,352.901 428.766,358.401 420.5,361C 307.5,361.667 194.5,361.667 81.5,361C 78.2441,359.413 76.0774,356.913 75,353.5C 74.5,275.501 74.3333,197.501 74.5,119.5 Z M 291.5,120.5 C 292.663,140.996 292.829,161.663 292,182.5C 277.979,190.217 272.979,201.884 277,217.5C 282.149,228.967 289.982,238.134 300.5,245C 304.12,245.841 307.454,245.174 310.5,243C 318.533,235.638 325.033,227.138 330,217.5C 334.021,201.884 329.021,190.217 315,182.5C 314.501,178.514 314.334,174.514 314.5,170.5C 340.833,170.5 367.167,170.5 393.5,170.5C 393.5,220.167 393.5,269.833 393.5,319.5C 301.5,319.5 209.5,319.5 117.5,319.5C 117.167,275.828 117.5,232.162 118.5,188.5C 137.128,195.765 155.794,202.931 174.5,210C 183.289,213.475 191.955,213.142 200.5,209C 225.437,199.912 250.104,190.245 274.5,180C 277.433,177.736 279.6,174.902 281,171.5C 282.122,155.556 282.956,139.556 283.5,123.5C 286.384,122.791 289.051,121.791 291.5,120.5 Z M 111.5,129.5 C 136.167,136.542 161,142.875 186,148.5C 210.771,143.3 235.271,136.967 259.5,129.5C 260.833,140.5 260.833,151.5 259.5,162.5C 234.93,171.704 210.43,181.037 186,190.5C 161.634,180.877 137.134,171.544 112.5,162.5C 111.501,151.52 111.168,140.52 111.5,129.5 Z M 301.5,202.5 C 305.155,202.472 307.822,204.139 309.5,207.5C 305.757,219.225 301.757,219.392 297.5,208C 298.65,206.019 299.984,204.186 301.5,202.5 Z M 213.5,383.5 C 241.5,383.5 269.5,383.5 297.5,383.5C 297.333,395.505 297.5,407.505 298,419.5C 300.167,429 306,434.833 315.5,437C 332.167,437.333 348.833,437.667 365.5,438C 367.624,439.122 369.457,440.622 371,442.5C 372.325,447.401 372.825,452.401 372.5,457.5C 294.5,457.5 216.5,457.5 138.5,457.5C 138.175,452.401 138.675,447.401 140,442.5C 141.543,440.622 143.376,439.122 145.5,438C 162.167,437.667 178.833,437.333 195.5,437C 205,434.833 210.833,429 213,419.5C 213.5,407.505 213.667,395.505 213.5,383.5 Z"/></g>
</svg>
