<svg xmlns="http://www.w3.org/2000/svg" width="420" height="327" viewBox="0 0 420 327" fill="none"><path d="M299.582 225.916L305.67 224.683C289.808 248.655 264.771 266.56 234.344 272.714C203.929 278.857 173.895 272.071 149.971 256.14L156.059 254.907C178.423 268.524 205.784 274.078 233.482 268.481C261.181 262.883 284.244 247.138 299.561 225.905L299.582 225.916ZM124.672 100.164C139.989 78.8543 163.095 63.044 190.87 57.4356C218.646 51.8272 246.072 57.4247 268.458 71.1074L274.534 69.8853C250.588 53.8785 220.5 47.059 190.019 53.2129C159.539 59.3669 134.458 77.3486 118.596 101.397L124.672 100.175V100.164ZM164.513 170.782L165.877 177.525C166.804 182.162 165.812 186.603 163.172 190.214C167.001 192.517 169.674 196.357 170.612 200.995L171.975 207.738C173.797 216.729 167.961 225.523 159.113 227.302L147.309 229.691C144.778 230.204 142.389 228.491 141.909 226.101L129.68 165.522C129.167 162.991 130.738 160.623 133.269 160.121L145.073 157.732C153.92 155.942 162.702 161.78 164.524 170.771L164.513 170.782ZM156.91 179.336L155.546 172.593C154.717 168.512 150.833 165.937 146.906 166.733L139.596 168.217L143.884 189.44L151.193 187.956C155.131 187.159 157.706 183.275 156.91 179.336ZM161.644 202.806C160.815 198.725 156.931 196.15 153.004 196.947L145.695 198.431L149.982 219.653L157.291 218.169C161.23 217.372 163.804 213.488 163.008 209.549L161.644 202.806ZM200.209 170.443L198.845 163.7C198.049 159.761 194.165 157.186 190.227 157.983L183.059 159.434L187.347 180.656L194.514 179.205C198.452 178.408 201.027 174.524 200.209 170.454V170.443ZM207.834 161.878L209.198 168.621C210.136 173.258 209.155 177.841 206.667 181.42C210.355 183.744 213.006 187.454 213.944 192.091L218.177 213.03C218.406 214.154 217.653 215.474 216.387 215.736L211.893 216.641C210.627 216.903 209.416 215.976 209.187 214.852L204.954 193.913C204.158 189.974 200.274 187.399 196.336 188.196L189.169 189.647L194.841 217.754C195.071 218.878 194.176 220.231 193.052 220.46L188.558 221.366C187.292 221.628 186.081 220.7 185.852 219.577L173.165 156.75C172.652 154.218 174.223 151.851 176.754 151.349L188.416 148.992C197.405 147.17 206.056 153.04 207.845 161.889L207.834 161.878ZM239.221 148.075C240.486 147.813 241.272 146.635 241.01 145.369L240.104 140.874C239.843 139.608 238.664 138.823 237.399 139.084L220.675 142.467C218.144 142.98 216.573 145.337 217.086 147.868L229.315 208.447C229.795 210.837 232.184 212.55 234.715 212.037L251.439 208.654C252.705 208.393 253.49 207.214 253.228 205.948L252.323 201.453C252.061 200.187 250.883 199.402 249.617 199.664L237.388 202.13L233.068 180.765L245.297 178.299C246.563 178.037 247.348 176.859 247.086 175.593L246.181 171.098C245.919 169.832 244.741 169.047 243.475 169.308L231.246 171.774L226.959 150.552L239.188 148.086L239.221 148.075ZM281.091 154.393L285.586 153.487C286.851 153.225 287.637 152.047 287.375 150.781L286.415 146.002C284.626 137.153 275.844 131.316 266.996 133.105C258.149 134.894 252.312 143.678 254.101 152.538C254.701 155.539 256.436 158.31 259.294 160.852L284.047 182.762C284.407 183.078 284.702 183.853 284.953 185.064C285.749 189.003 283.175 192.888 279.236 193.684C275.298 194.481 271.414 191.906 270.618 187.967L269.658 183.188C269.396 181.922 268.218 181.136 266.952 181.398L262.458 182.304C261.192 182.566 260.407 183.744 260.669 185.01L261.629 189.789C263.418 198.649 272.2 204.475 281.047 202.686C289.895 200.897 295.731 192.113 293.942 183.253C293.342 180.252 291.608 177.481 288.749 174.939L263.996 153.029C263.636 152.713 263.341 151.938 263.09 150.727C262.294 146.788 264.869 142.903 268.807 142.107C272.745 141.31 276.629 143.885 277.425 147.824L278.385 152.603C278.647 153.869 279.825 154.655 281.091 154.393ZM315.936 123.219L294.302 127.595C293.037 127.857 292.251 129.035 292.513 130.301L293.419 134.796C293.68 136.062 294.859 136.848 296.124 136.586L302.441 135.309L314.223 193.63C314.452 194.754 315.663 195.681 316.928 195.419L321.423 194.513C322.688 194.252 323.441 192.942 323.212 191.807L311.43 133.487L317.746 132.21C319.012 131.948 319.797 130.77 319.536 129.504L318.63 125.009C318.368 123.743 317.19 122.958 315.925 123.219H315.936ZM65.4999 162.718C94.7479 148.37 112.814 150.247 118.192 152.974L114.461 134.523C108.494 131.861 89.5769 129.941 61.6271 143.569C26.6952 160.601 11.8912 159.827 0 157.655L13.2985 176.87C18.5132 178.136 36.2628 177.066 65.5108 162.729L65.4999 162.718ZM125.796 190.989L121.88 171.589C112.781 169.09 94.6388 169.167 76.0929 178.638C50.3904 191.764 34.5391 195.692 25.4734 195.408L33.5572 203.832L28.3644 214.197C48.1649 212.975 52.485 209.658 80.6421 196.772C103.17 186.472 120.123 188.632 125.785 191L125.796 190.989ZM133.214 227.749L129.451 209.135C115.039 205.839 100.301 207.018 71.1837 221.235C47.8922 232.615 29.6844 233.598 23.4988 232.67L18.1532 251.165C25.0261 253.62 46.0157 254.754 74.9147 239.697C103.814 224.639 125.829 225.458 133.214 227.749ZM130.247 134.687C130.64 134.611 130.88 134.24 130.803 133.858L130.531 132.483C130.454 132.101 130.083 131.85 129.702 131.938L124.552 132.974C123.778 133.138 123.287 133.858 123.44 134.633L127.323 153.847C127.4 154.229 127.771 154.48 128.152 154.393L129.538 154.109C129.931 154.033 130.171 153.673 130.094 153.28L128.36 144.682L132.123 143.918C132.516 143.842 132.756 143.471 132.68 143.089L132.407 141.714C132.331 141.332 131.96 141.081 131.578 141.168L127.814 141.932L126.505 135.44L130.269 134.676L130.247 134.687ZM134.262 128.009C133.738 128.108 133.454 127.813 133.629 127.333L135.254 122.445C135.396 122.008 135.844 121.561 136.313 121.43C136.345 121.375 137.905 121.059 137.96 121.103C138.44 121.048 139.029 121.288 139.324 121.637L142.716 125.522C143.066 125.893 142.913 126.285 142.4 126.395L141.058 126.667C140.535 126.766 139.858 126.547 139.52 126.176L137.687 124.038L136.836 126.722C136.662 127.202 136.084 127.671 135.614 127.769L134.273 128.042L134.262 128.009ZM138.636 132.996L139.945 139.488L143.709 138.724C144.091 138.637 144.462 138.888 144.538 139.27L144.822 140.645C144.898 141.027 144.658 141.398 144.266 141.474L140.502 142.238L141.822 148.774L145.586 148.01C145.967 147.922 146.338 148.173 146.415 148.555L146.687 149.93C146.775 150.323 146.524 150.683 146.131 150.759L140.982 151.796C140.196 151.949 139.465 151.425 139.313 150.694L135.571 132.167C135.418 131.392 135.898 130.672 136.684 130.508L141.833 129.472C142.215 129.384 142.586 129.635 142.662 130.017L142.935 131.392C143.011 131.774 142.771 132.145 142.378 132.221L138.615 132.985L138.636 132.996ZM154.302 126.962L147.637 128.304C147.244 128.38 147.004 128.751 147.08 129.133L147.353 130.508C147.429 130.89 147.8 131.141 148.182 131.054L150.124 130.661L153.735 148.501C153.8 148.85 154.182 149.134 154.564 149.046L155.95 148.774C156.342 148.697 156.571 148.293 156.506 147.944L152.895 130.104L154.837 129.712C155.229 129.635 155.47 129.264 155.393 128.882L155.12 127.508C155.044 127.126 154.673 126.875 154.291 126.962H154.302ZM166.543 127.355C166.935 127.278 167.175 126.907 167.099 126.526L166.826 125.151C166.75 124.769 166.379 124.518 165.997 124.605L160.848 125.642C160.073 125.805 159.582 126.526 159.735 127.3L163.477 145.828C163.63 146.559 164.361 147.082 165.146 146.93L170.295 145.893C170.688 145.817 170.928 145.457 170.852 145.064L170.568 143.689C170.492 143.307 170.121 143.056 169.739 143.143L165.975 143.907L164.655 137.371L168.419 136.608C168.812 136.531 169.052 136.16 168.975 135.778L168.692 134.403C168.615 134.022 168.244 133.771 167.863 133.858L164.099 134.622L162.79 128.129L166.553 127.366L166.543 127.355ZM179.121 129.33L180.507 129.057C180.899 128.981 181.139 128.61 181.063 128.228L180.768 126.766C180.223 124.06 177.528 122.281 174.801 122.827C172.074 123.372 170.274 126.067 170.819 128.773C171.004 129.69 171.539 130.541 172.412 131.316L180.016 138.015C180.125 138.113 180.223 138.342 180.288 138.724C180.528 139.925 179.732 141.125 178.532 141.365C177.321 141.605 176.121 140.819 175.881 139.619L175.586 138.157C175.51 137.775 175.139 137.524 174.757 137.611L173.372 137.884C172.99 137.961 172.739 138.331 172.815 138.713L173.11 140.175C173.655 142.881 176.35 144.66 179.077 144.114C181.805 143.558 183.605 140.874 183.059 138.168C182.874 137.251 182.339 136.4 181.467 135.626L173.863 128.937C173.754 128.839 173.655 128.61 173.59 128.228C173.35 127.017 174.146 125.827 175.346 125.587C176.557 125.347 177.757 126.133 177.997 127.333L178.292 128.795C178.368 129.177 178.739 129.428 179.121 129.341V129.33ZM203.929 116.935C202.543 117.207 201.365 118.08 200.656 119.204C199.554 118.44 198.136 118.102 196.751 118.375C193.98 118.931 192.19 121.626 192.736 124.332L195.9 139.979C195.965 140.328 196.38 140.601 196.729 140.525L198.114 140.252C198.507 140.175 198.736 139.772 198.671 139.423L195.507 123.776C195.267 122.576 196.063 121.375 197.318 121.124C198.572 120.874 199.729 121.67 199.969 122.87L203.133 138.517C203.198 138.866 203.58 139.15 203.962 139.063L205.347 138.79C205.74 138.713 205.969 138.31 205.904 137.961L202.74 122.314C202.5 121.114 203.296 119.913 204.496 119.673C205.696 119.433 206.94 120.208 207.191 121.408L210.355 137.055C210.42 137.404 210.802 137.688 211.184 137.6L212.569 137.317C212.962 137.24 213.191 136.837 213.126 136.487L209.962 120.841C209.416 118.135 206.711 116.356 203.94 116.913L203.929 116.935ZM222.082 118.451C221.842 117.251 220.697 116.454 219.431 116.705C218.177 116.956 217.38 118.146 217.62 119.357L218.493 123.656L222.944 122.75L222.071 118.451H222.082ZM218.875 113.945C221.602 113.399 224.297 115.178 224.842 117.884L227.995 133.487C228.082 133.88 227.831 134.24 227.439 134.316L226.053 134.6C225.671 134.687 225.3 134.436 225.224 134.054L223.5 125.5L219.049 126.406L220.773 134.96C220.86 135.353 220.609 135.713 220.217 135.789L218.831 136.062C218.449 136.149 218.078 135.898 218.002 135.516L214.849 119.913C214.304 117.207 216.104 114.523 218.864 113.956L218.875 113.945ZM237.126 117.513L236.712 115.451C236.472 114.25 235.272 113.465 234.061 113.705L231.857 114.152L233.166 120.644L235.37 120.197C236.581 119.957 237.377 118.768 237.126 117.513ZM239.472 114.894L239.886 116.956C240.17 118.375 239.875 119.771 239.101 120.874C240.235 121.583 241.043 122.718 241.337 124.136L242.635 130.541C242.712 130.89 242.472 131.294 242.079 131.37L240.694 131.643C240.312 131.73 239.93 131.447 239.864 131.097L238.566 124.692C238.326 123.492 237.126 122.707 235.915 122.947L233.712 123.394L235.446 131.992C235.523 132.341 235.239 132.745 234.89 132.821L233.504 133.094C233.122 133.181 232.741 132.898 232.675 132.549L228.791 113.334C228.639 112.559 229.119 111.839 229.904 111.675L233.493 110.944C236.264 110.388 238.915 112.177 239.461 114.883L239.472 114.894ZM246.257 109.1C246.181 108.718 245.777 108.478 245.428 108.555L244.043 108.838C243.65 108.915 243.41 109.286 243.486 109.668L247.501 129.57C247.577 129.952 247.948 130.203 248.33 130.115L249.716 129.843C250.108 129.766 250.348 129.406 250.272 129.013L246.257 109.111V109.1ZM257.941 106.012L251.276 107.354C250.883 107.431 250.643 107.802 250.719 108.184L251.003 109.559C251.079 109.94 251.45 110.191 251.832 110.104L253.774 109.711L257.385 127.551C257.45 127.9 257.832 128.184 258.214 128.097L259.599 127.813C259.992 127.737 260.221 127.333 260.156 126.984L256.545 109.144L258.487 108.751C258.879 108.675 259.119 108.304 259.043 107.922L258.77 106.547C258.694 106.165 258.323 105.914 257.941 106.002V106.012ZM265.371 105.238C265.294 104.856 264.891 104.616 264.541 104.692L263.156 104.976C262.763 105.052 262.523 105.423 262.6 105.805L266.614 125.707C266.691 126.089 267.061 126.34 267.443 126.253L268.829 125.98C269.222 125.904 269.462 125.544 269.385 125.151L265.371 105.249V105.238ZM282.335 101.091C280.949 101.364 279.771 102.237 279.062 103.361C277.96 102.597 276.542 102.259 275.156 102.532C272.385 103.088 270.596 105.783 271.142 108.489L274.305 124.136C274.371 124.485 274.785 124.758 275.134 124.682L276.52 124.409C276.913 124.332 277.142 123.929 277.076 123.58L273.913 107.933C273.673 106.733 274.469 105.532 275.724 105.281C276.978 105.03 278.135 105.827 278.375 107.027L281.538 122.674C281.604 123.023 281.986 123.307 282.367 123.219L283.753 122.947C284.146 122.87 284.375 122.467 284.309 122.117L281.145 106.471C280.905 105.27 281.702 104.07 282.902 103.83C284.113 103.59 285.346 104.365 285.597 105.565L288.76 121.212C288.826 121.561 289.208 121.845 289.589 121.757L290.975 121.474C291.368 121.397 291.597 120.994 291.531 120.644L288.367 104.998C287.822 102.292 285.127 100.513 282.346 101.07L282.335 101.091ZM299.342 100.513C299.735 100.437 299.975 100.066 299.899 99.6839L299.615 98.3091C299.539 97.9272 299.168 97.6762 298.786 97.7635L293.637 98.8001C292.862 98.9638 292.371 99.6839 292.524 100.459L296.266 118.986C296.419 119.717 297.15 120.241 297.935 120.088L303.084 119.051C303.477 118.975 303.717 118.615 303.641 118.222L303.368 116.847C303.292 116.465 302.921 116.214 302.539 116.302L298.775 117.065L297.455 110.53L301.219 109.766C301.611 109.689 301.851 109.319 301.775 108.937L301.502 107.562C301.426 107.18 301.055 106.929 300.673 107.016L296.91 107.78L295.6 101.288L299.364 100.524L299.342 100.513ZM311.932 102.488L313.317 102.204C313.71 102.128 313.95 101.757 313.874 101.375L313.579 99.913C313.034 97.207 310.339 95.4285 307.612 95.9741C304.884 96.5196 303.084 99.2147 303.63 101.921C303.815 102.837 304.35 103.688 305.222 104.463L312.826 111.152C312.935 111.25 313.034 111.479 313.099 111.861C313.339 113.061 312.543 114.261 311.343 114.501C310.132 114.741 308.932 113.956 308.692 112.756L308.397 111.293C308.321 110.912 307.95 110.661 307.568 110.748L306.183 111.021C305.79 111.097 305.55 111.468 305.626 111.85L305.921 113.312C306.466 116.018 309.161 117.797 311.888 117.251C314.615 116.705 316.416 114.01 315.87 111.304C315.685 110.388 315.15 109.537 314.277 108.762L306.673 102.073C306.564 101.975 306.466 101.746 306.39 101.364C306.15 100.164 306.946 98.9638 308.146 98.7237C309.357 98.4837 310.557 99.2693 310.797 100.47L311.092 101.932C311.168 102.314 311.539 102.564 311.921 102.477L311.932 102.488ZM347.573 69.5907C346.449 69.7325 345.347 69.8526 344.278 69.9508C343.122 70.0708 342.162 70.169 341.409 70.2672C340.667 70.3654 340.132 70.4418 339.816 70.4963C339.358 70.5945 338.867 70.7146 338.343 70.8782C337.842 71.0419 337.296 71.2383 336.685 71.4784C335.845 71.8275 335.158 72.1112 334.645 72.3294C334.154 72.5149 333.816 72.6458 333.652 72.7004C333.5 72.9732 333.183 73.3005 332.703 73.6933C332.223 74.0861 331.634 74.5117 330.925 74.9809C329.899 75.7556 329.321 77.0431 329.179 78.8762C329.038 80.6765 328.994 81.6585 329.027 81.8331C329.31 82.335 329.529 82.6842 329.681 82.8915L329.583 84.3754C329.518 84.9428 330.085 86.0776 331.285 87.747C332.485 89.4164 333.303 90.2129 333.761 90.1257C334.067 90.0602 334.427 89.7001 334.82 89.0236C335.212 88.3253 335.409 87.7579 335.409 87.3105C335.332 85.3465 335.998 83.7208 337.394 82.4332C338.78 81.1239 340.885 80.1746 343.689 79.6072C344.082 79.5199 344.758 79.5417 345.696 79.64C346.656 79.7163 347.889 79.88 349.384 80.131C350.235 80.251 350.944 80.3928 351.511 80.5456C352.067 80.6656 352.46 80.7965 352.7 80.9275C353.191 81.1566 353.584 81.5058 353.889 81.975C354.217 82.4332 354.446 83.0115 354.587 83.688C354.838 84.9101 354.642 86.645 353.998 88.8927C353.355 91.1186 352.275 93.8464 350.769 97.0652C350.496 97.6217 349.613 99.3347 348.129 102.204C346.667 105.074 344.594 109.046 341.9 114.13C340.274 117.196 339.085 119.695 338.322 121.626C337.58 123.514 337.242 124.845 337.307 125.598C337.656 126.329 337.929 126.897 338.103 127.344C338.311 127.802 338.463 128.108 338.562 128.271C338.998 129.395 340.274 130.028 342.402 130.192C344.562 130.377 347.605 130.072 351.522 129.275C352.144 129.155 353.115 128.806 354.413 128.25C355.711 127.693 356.693 127.344 357.347 127.213C358.002 127.082 358.744 126.886 359.573 126.635C359.758 126.536 360.02 126.416 360.337 126.264C360.686 125.958 361.155 125.642 361.733 125.314C362.355 125.02 363.053 124.747 363.828 124.496C364.711 124.201 365.464 123.907 366.086 123.601C366.73 123.296 367.264 122.99 367.679 122.707C368.06 122.248 368.431 121.801 368.791 121.375C369.151 120.983 369.501 120.579 369.839 120.186C370.242 119.695 370.515 119.193 370.646 118.702C370.81 118.2 370.842 117.72 370.755 117.262C370.657 116.782 370.45 116.454 370.111 116.28C369.773 116.083 369.359 116.029 368.846 116.138C367.766 116.356 366.708 116.662 365.66 117.044C364.646 117.404 363.62 117.829 362.595 118.331C362.191 118.386 361.755 118.397 361.275 118.375L353.311 119.979C352.013 120.252 352.024 120.252 353.366 120.012C351.293 120.404 349.678 120.579 348.555 120.546C347.431 120.503 346.82 120.273 346.733 119.848C346.645 119.39 346.929 118.342 347.605 116.705C348.304 115.058 349.395 112.843 350.867 110.071C351.827 107.955 352.646 106.1 353.333 104.485C354.042 102.859 354.609 101.517 355.035 100.415C355.406 99.6621 355.744 99.0183 356.017 98.4837C356.322 97.949 356.562 97.5016 356.726 97.1416C358.297 93.0499 359.409 89.7001 360.108 87.1141C360.817 84.4954 361.079 82.6078 360.871 81.473C360.838 81.3312 360.817 81.113 360.784 80.8293C360.784 80.5347 360.729 80.1528 360.631 79.6618C360.588 79.2908 360.533 78.9525 360.478 78.6689L360.326 77.9051C360.271 77.6214 360.086 77.1849 359.791 76.5957C359.486 75.9738 359.028 75.1991 358.395 74.2716C357.926 73.5406 357.424 72.9186 356.911 72.4058C356.42 71.8821 355.886 71.5438 355.286 71.3692C354.598 71.1837 353.922 70.9873 353.256 70.7582C352.613 70.5072 351.936 70.289 351.216 70.1035C350.376 69.8853 349.645 69.7326 349.045 69.6562C348.435 69.5689 347.944 69.5471 347.562 69.558L347.573 69.5907ZM389.377 109.253C388.614 109.406 387.806 109.144 386.956 108.457C386.137 107.769 385.308 106.602 384.479 104.976C383.792 103.787 383.225 102.597 382.788 101.419C382.374 100.229 382.046 99.0729 381.817 97.9381C381.719 97.4253 381.621 97.0106 381.523 96.6724C381.446 96.3014 381.381 96.0395 381.315 95.8759C381.01 95.2321 380.694 94.5774 380.388 93.9009C380.312 93.53 380.29 92.9735 380.312 92.2315C380.334 91.4568 380.312 90.8894 380.224 90.5185C379.843 89.0673 379.472 87.5833 379.112 86.0994C378.948 85.4556 378.839 84.7028 378.784 83.819C378.719 82.9461 378.73 81.9422 378.784 80.8075C378.85 79.2253 378.904 77.9924 378.97 77.0976C379.024 76.1702 379.024 75.6137 378.981 75.4173C378.817 75.0354 378.61 74.5771 378.392 74.0316C378.283 73.4642 378.413 72.8204 378.795 72.0894C379.199 71.3256 379.864 70.4854 380.77 69.5689C381.61 68.6305 382.395 67.8995 383.115 67.3648C383.857 66.8302 384.555 66.5028 385.177 66.3719C388.417 65.7172 391.134 66.5137 393.327 68.7505C395.519 70.9655 397.134 74.6317 398.17 79.7709C398.356 80.6765 398.487 82.3568 398.563 84.7791C398.639 87.1796 398.629 88.7399 398.53 89.4273C397.974 92.1988 397.461 94.512 397.014 96.3778C396.589 98.2327 396.218 99.673 395.89 100.677C395.083 103.285 394.134 105.303 393.032 106.743C391.952 108.14 390.741 108.98 389.377 109.253ZM378.708 63.2513L378.523 63.0221C378.544 62.1274 378.544 61.1891 378.523 60.1852C378.468 59.9233 378.337 59.7488 378.108 59.6506C377.912 59.5415 377.606 59.5305 377.213 59.6069C376.504 59.7488 375.937 60.0434 375.533 60.4798C375.119 60.8944 374.792 61.4291 374.573 62.0947C374.388 62.7494 374.213 63.404 374.082 64.0478C373.973 64.6588 373.842 65.2808 373.701 65.9027C373.57 66.6992 373.45 67.3539 373.341 67.8776C373.264 68.3905 373.253 68.7942 373.319 69.0779C373.21 70.4309 373.079 71.6202 372.937 72.6568C372.817 73.6606 372.664 74.468 372.501 75.09C372.446 76.2902 372.381 77.3268 372.293 78.2324C372.239 79.0944 372.173 79.8036 372.108 80.3492C371.879 82.7278 371.802 85.0519 371.868 87.2996C371.933 89.5255 372.173 91.6641 372.588 93.7045C372.817 94.8175 372.981 95.7122 373.09 96.3887C373.221 97.0434 373.286 97.5016 373.275 97.7744C373.319 98.2982 373.373 98.9419 373.439 99.6948C373.472 99.8694 373.537 100.055 373.646 100.273C373.766 100.459 373.941 100.699 374.148 101.015C374.202 102.008 374.41 103.099 374.77 104.299C375.13 105.467 375.632 106.722 376.286 108.064C376.984 109.482 377.639 110.715 378.228 111.741C378.839 112.745 379.406 113.508 379.93 114.054C380.65 114.676 381.523 115.276 382.559 115.865C383.617 116.422 384.861 116.88 386.29 117.24C386.705 117.393 387.043 117.469 387.316 117.48C387.61 117.502 387.85 117.502 388.025 117.48C388.341 117.415 388.636 117.349 388.908 117.262C389.192 117.207 389.541 117.153 389.934 117.098C390.447 117 390.861 116.924 391.177 116.891C391.494 116.858 391.723 116.825 391.865 116.804C392.148 116.749 392.519 116.553 392.988 116.225C393.458 115.931 394.014 115.505 394.636 114.96C395.77 114.021 396.774 112.886 397.625 111.566C398.509 110.235 399.261 108.773 399.883 107.169C400.232 106.427 400.625 105.292 401.061 103.787C401.487 102.259 401.956 100.349 402.469 98.0581C402.621 97.3489 402.752 96.7051 402.872 96.1159C402.981 95.5049 403.003 94.9702 402.949 94.512C403.058 93.7264 403.156 93.0608 403.265 92.5479C403.363 91.9915 403.451 91.5223 403.549 91.1186C403.701 87.3106 403.734 84.1136 403.647 81.5385C403.56 78.9635 403.396 76.9994 403.123 75.6683C402.534 72.7768 402.01 70.4309 401.53 68.6414C401.072 66.8192 400.701 65.5208 400.429 64.7461C399.698 62.8912 398.727 61.2873 397.505 59.9343C396.283 58.5594 394.81 57.4138 393.087 56.4863C391.963 55.9189 390.948 55.4934 390.043 55.2424C389.159 54.9478 388.428 54.8605 387.861 54.9696C386.301 55.2861 384.905 55.9298 383.694 56.9118C382.472 57.8939 381.392 59.225 380.464 60.8835C380.126 61.4291 379.799 61.8983 379.472 62.3238C379.134 62.7166 378.872 63.0331 378.686 63.2731L378.708 63.2513ZM360.74 138.222C359.617 138.364 358.515 138.484 357.446 138.582C356.289 138.702 355.329 138.801 354.576 138.899C353.835 138.986 353.3 139.073 352.984 139.128C352.526 139.215 352.035 139.346 351.511 139.51C351.009 139.674 350.464 139.87 349.853 140.11C349.013 140.459 348.325 140.743 347.813 140.961C347.322 141.147 346.984 141.278 346.82 141.332C346.667 141.605 346.351 141.932 345.871 142.325C345.391 142.718 344.802 143.143 344.093 143.613C343.067 144.376 342.489 145.675 342.347 147.508C342.205 149.308 342.162 150.29 342.194 150.465C342.478 150.967 342.696 151.316 342.849 151.523L342.751 153.007C342.685 153.574 343.253 154.709 344.453 156.379C345.653 158.048 346.471 158.845 346.929 158.757C347.235 158.692 347.595 158.321 347.987 157.655C348.38 156.957 348.576 156.39 348.576 155.942C348.5 153.978 349.165 152.352 350.562 151.065C351.947 149.756 354.053 148.806 356.857 148.239C357.249 148.152 357.926 148.163 358.864 148.272C359.824 148.348 361.057 148.512 362.551 148.763C363.402 148.883 364.111 149.025 364.679 149.177C365.235 149.297 365.628 149.428 365.868 149.559C366.359 149.788 366.751 150.137 367.057 150.607C367.384 151.065 367.613 151.643 367.755 152.32C368.006 153.542 367.81 155.277 367.166 157.524C366.522 159.75 365.442 162.478 363.937 165.697C363.664 166.253 362.78 167.966 361.297 170.836C359.835 173.706 357.762 177.677 355.067 182.762C353.442 185.828 352.253 188.327 351.489 190.258C350.747 192.146 350.409 193.477 350.475 194.23C350.824 194.95 351.096 195.528 351.271 195.976C351.478 196.434 351.631 196.739 351.729 196.903C352.166 198.027 353.442 198.66 355.569 198.823C357.729 199.009 360.773 198.703 364.69 197.907C365.311 197.787 366.282 197.438 367.58 196.881C368.879 196.325 369.861 195.976 370.515 195.845C371.17 195.714 371.912 195.517 372.741 195.266C372.926 195.168 373.188 195.048 373.504 194.895C373.853 194.59 374.322 194.273 374.901 193.946C375.522 193.651 376.221 193.379 376.995 193.128C377.879 192.833 378.632 192.539 379.254 192.233C379.897 191.927 380.432 191.622 380.846 191.338C381.228 190.88 381.599 190.433 381.959 190.007C382.319 189.614 382.668 189.211 383.006 188.818C383.41 188.327 383.683 187.825 383.814 187.334C383.977 186.832 384.01 186.352 383.923 185.894C383.825 185.413 383.617 185.086 383.279 184.912C382.941 184.715 382.526 184.661 382.014 184.77C380.934 184.988 379.875 185.293 378.828 185.675C377.813 186.035 376.788 186.461 375.763 186.963C375.359 187.017 374.923 187.028 374.442 187.007C370.461 187.814 367.777 188.349 366.479 188.61C365.18 188.883 365.191 188.894 366.533 188.643C364.46 189.036 362.846 189.211 361.722 189.178C360.598 189.134 359.988 188.905 359.9 188.48C359.813 188.021 360.097 186.974 360.773 185.337C361.471 183.69 362.562 181.475 364.035 178.703C364.995 176.586 365.813 174.72 366.5 173.117C367.21 171.491 367.777 170.149 368.202 169.047C368.573 168.294 368.911 167.65 369.184 167.115C369.49 166.581 369.73 166.133 369.893 165.773C371.464 161.682 372.577 158.343 373.275 155.757C373.984 153.138 374.246 151.25 374.039 150.116C374.006 149.974 373.984 149.756 373.952 149.472C373.952 149.177 373.897 148.795 373.799 148.304C373.755 147.933 373.701 147.606 373.646 147.322L373.493 146.559C373.439 146.275 373.253 145.838 372.959 145.249C372.653 144.627 372.195 143.853 371.562 142.925C371.093 142.194 370.591 141.572 370.079 141.059C369.588 140.536 369.053 140.197 368.453 140.023C367.766 139.837 367.09 139.641 366.424 139.412C365.78 139.161 365.104 138.943 364.384 138.768C363.544 138.55 362.813 138.397 362.213 138.321C361.602 138.233 361.111 138.211 360.729 138.222H360.74ZM405.6 141.769C404.858 141.921 404.192 142.543 403.581 143.634C402.97 144.725 402.752 145.664 402.905 146.428C403.014 146.995 403.101 147.846 403.156 148.992C403.243 150.127 403.309 151.545 403.352 153.247C403.505 155.135 403.647 156.761 403.811 158.114C403.963 159.467 404.105 160.612 404.247 161.562C404.269 162.413 404.312 163.373 404.389 164.453C404.476 165.5 404.596 166.592 404.749 167.748C404.825 168.119 404.836 168.403 404.792 168.621C404.738 168.807 404.618 168.938 404.421 169.003C403.952 169.188 403.407 169.385 402.763 169.603C401.825 169.789 401.05 169.974 400.44 170.16C399.85 170.334 399.425 170.498 399.163 170.64C398.29 170.694 397.418 170.727 396.567 170.727C395.738 170.683 394.854 170.705 393.916 170.771C392.89 170.683 392.083 170.4 391.483 169.93C390.883 169.461 390.501 168.807 390.327 167.955C390.097 166.799 389.967 165.37 389.956 163.689C389.967 162.009 390.097 160.078 390.337 157.906C390.447 156.99 390.512 156.204 390.523 155.517C390.556 154.797 390.567 154.207 390.567 153.738C390.937 149.919 391.287 146.559 391.581 143.656C391.887 140.765 392.181 138.375 392.487 136.477L393.654 128.85C393.501 128.108 393.25 127.606 392.901 127.322C392.541 127.038 392.083 126.951 391.516 127.071C390.577 127.257 389.497 127.889 388.265 128.97C387.065 130.006 385.69 131.501 384.163 133.432C383.977 133.705 383.77 134.905 383.519 137.022C383.257 139.106 383.17 140.47 383.235 141.103L383.421 141.376C383.715 141.528 384.032 141.812 384.348 142.249C384.414 142.532 384.425 142.903 384.392 143.351C384.392 143.765 384.326 144.267 384.206 144.846C383.53 148.228 383.214 151.807 383.268 155.571C383.345 159.303 383.803 163.242 384.632 167.377C384.839 168.392 385.003 169.308 385.134 170.105C385.265 170.902 385.352 171.611 385.385 172.222C385.581 172.778 385.755 173.28 385.919 173.749C386.094 174.186 386.214 174.579 386.29 174.917C386.759 177.132 387.937 178.627 389.814 179.434C391.712 180.198 394.276 180.263 397.516 179.609C398.279 179.456 399.469 179.063 401.094 178.441C402.73 177.787 403.909 177.383 404.618 177.241C405.076 177.154 405.425 177.175 405.654 177.339C405.894 177.492 406.047 177.754 406.123 178.125C406.189 178.43 406.2 178.965 406.178 179.707C406.178 180.416 406.2 180.929 406.265 181.234C406.549 182.598 406.8 184.606 407.04 187.268C407.312 189.931 407.596 191.949 407.869 193.346C408.054 194.252 408.316 194.895 408.654 195.266C408.992 195.637 409.363 195.79 409.767 195.703C410.171 195.615 410.836 194.983 411.774 193.793C412.713 192.593 413.182 191.797 413.193 191.382L412.505 190.193C412.505 187.836 412.473 185.774 412.407 184.017C412.353 182.282 412.265 180.864 412.156 179.729L411.96 178.747C411.894 178.561 411.873 178.278 411.883 177.917C411.894 177.557 411.916 177.143 411.938 176.663C412.003 175.681 412.145 174.819 412.353 174.099C412.593 173.367 412.898 172.811 413.258 172.418C413.88 171.818 414.513 171.262 415.178 170.749C415.833 170.203 416.465 169.636 417.044 169.047C417.731 168.348 418.298 167.748 418.756 167.235C419.215 166.733 419.629 166.297 420 165.926C420 165.751 419.967 165.555 419.924 165.326C419.913 165.097 419.88 164.868 419.836 164.638C419.705 163.984 419.509 163.526 419.247 163.253C418.975 162.958 418.647 162.838 418.244 162.925C417.785 163.013 416.945 163.536 415.724 164.497C414.491 165.424 413.531 165.959 412.854 166.09C412.516 166.166 412.243 166.122 412.036 165.991C411.851 165.817 411.731 165.533 411.643 165.14C411.589 164.857 411.523 163.984 411.469 162.522C411.436 161.049 411.436 158.997 411.469 156.368C411.469 153.858 411.458 151.829 411.436 150.268C411.436 148.697 411.491 147.661 411.556 147.148C411.643 146.308 411.709 145.598 411.709 145.031C411.709 144.475 411.687 144.049 411.633 143.765C411.556 143.394 411.283 143.078 410.825 142.827C410.378 142.532 409.734 142.249 408.883 141.987C408.174 141.834 407.531 141.736 406.963 141.703C406.418 141.659 405.971 141.681 405.6 141.758V141.769ZM368.006 212.091L358.264 214.055C340.82 263.876 298.284 303.506 242.744 314.723C187.205 325.939 132.625 305.939 97.2025 266.8L87.4605 268.764C124.694 312.584 184.041 335.367 244.446 323.157C304.852 310.947 350.693 266.91 368.006 212.07H368.017L368.006 212.091ZM336.543 57.3483C299.288 13.7361 240.094 -8.90473 179.841 3.27221C119.578 15.4491 73.8128 59.3014 56.4124 113.956L66.1763 111.981C83.6967 62.3456 126.156 22.9015 181.543 11.7175C236.93 0.522574 291.368 20.3919 326.779 59.3232L336.543 57.3483ZM140.022 275.344L138.855 277.242C138.549 277.744 138.244 278.126 137.927 278.377C137.633 278.65 137.316 278.814 137 278.89C136.694 278.966 136.389 278.956 136.073 278.868C135.767 278.77 135.451 278.617 135.113 278.41C134.927 278.301 134.731 278.181 134.523 278.05C134.338 277.919 134.185 277.821 134.087 277.744L138.309 270.87C138.418 270.925 138.582 271.023 138.767 271.143C138.975 271.263 139.182 271.383 139.367 271.492C139.705 271.7 139.978 271.918 140.196 272.158C140.415 272.387 140.567 272.66 140.633 272.976C140.72 273.282 140.709 273.62 140.6 274.013C140.502 274.395 140.316 274.842 140 275.344H140.022ZM141.364 278.792L142.531 276.893C143.011 276.119 143.316 275.377 143.458 274.667C143.6 273.947 143.589 273.271 143.426 272.638C143.262 271.994 142.956 271.405 142.487 270.859C142.029 270.303 141.44 269.801 140.698 269.354C140.393 269.168 140.076 268.983 139.76 268.808C139.455 268.633 139.149 268.459 138.855 268.306C138.571 268.153 138.298 268.022 138.047 267.913C137.807 267.793 137.611 267.706 137.447 267.641C137.294 267.575 137.164 267.553 137.033 267.586C136.913 267.619 136.804 267.728 136.705 267.892L130.727 277.624C130.629 277.799 130.585 277.941 130.607 278.061C130.64 278.181 130.716 278.301 130.836 278.41C130.967 278.53 131.131 278.672 131.338 278.846C131.556 279.01 131.796 279.185 132.069 279.381C132.342 279.577 132.625 279.774 132.92 279.97C133.214 280.188 133.52 280.385 133.825 280.57C134.567 281.029 135.276 281.334 135.964 281.509C136.662 281.672 137.327 281.683 137.971 281.552C138.615 281.411 139.215 281.116 139.793 280.669C140.371 280.21 140.905 279.599 141.375 278.825L141.364 278.792ZM154.291 285.841L157.608 278.901C157.651 278.814 157.64 278.726 157.608 278.639C157.575 278.552 157.51 278.486 157.433 278.443L155.404 277.472C155.317 277.428 155.23 277.428 155.142 277.472C155.055 277.493 154.989 277.548 154.957 277.635L151.64 284.575C151.455 284.968 151.258 285.295 151.062 285.557C150.866 285.808 150.648 285.993 150.418 286.113C150.2 286.222 149.949 286.277 149.666 286.255C149.393 286.233 149.088 286.135 148.738 285.961C148.378 285.786 148.106 285.6 147.909 285.404C147.724 285.197 147.604 284.979 147.538 284.728C147.495 284.477 147.506 284.193 147.582 283.887C147.669 283.571 147.8 283.222 147.997 282.818L151.313 275.879C151.346 275.791 151.346 275.715 151.313 275.628C151.28 275.54 151.215 275.464 151.138 275.431L149.098 274.449C149.011 274.406 148.924 274.406 148.837 274.449C148.749 274.471 148.684 274.526 148.651 274.613L145.335 281.552C144.909 282.447 144.669 283.244 144.615 283.931C144.582 284.618 144.68 285.229 144.92 285.764C145.171 286.288 145.531 286.746 146 287.15C146.491 287.543 147.037 287.892 147.669 288.197C148.291 288.492 148.902 288.71 149.513 288.83C150.124 288.961 150.713 288.95 151.28 288.819C151.848 288.677 152.393 288.372 152.906 287.914C153.419 287.444 153.899 286.768 154.324 285.873L154.291 285.841ZM168.266 293.489L166.063 292.835C165.975 292.813 165.888 292.824 165.801 292.867C165.713 292.9 165.659 292.966 165.637 293.053L165.124 294.755C165.102 294.842 165.113 294.93 165.157 295.017C165.201 295.104 165.266 295.159 165.353 295.191L172.564 297.363C172.652 297.385 172.739 297.374 172.826 297.33C172.914 297.286 172.968 297.221 173.001 297.134L173.514 295.431C173.535 295.344 173.525 295.257 173.481 295.181C173.437 295.093 173.372 295.039 173.285 295.006L171.081 294.351L173.961 284.717C174.026 284.509 173.961 284.368 173.743 284.313L172.259 283.866C172.106 283.822 171.975 283.8 171.855 283.822L168.441 284.335C168.321 284.335 168.233 284.411 168.201 284.52L167.644 286.408C167.601 286.55 167.644 286.637 167.764 286.681C167.808 286.681 167.873 286.692 167.972 286.681L170.394 286.397L168.266 293.522V293.489ZM188.71 290.958C188.918 289.867 188.743 288.994 188.176 288.339C187.619 287.663 186.572 287.183 185.012 286.877C184.379 286.757 183.725 286.681 183.048 286.659C182.383 286.637 181.805 286.659 181.292 286.703C181.194 286.703 181.107 286.735 181.03 286.779C180.965 286.812 180.921 286.877 180.91 286.964L180.659 288.285C180.648 288.372 180.659 288.459 180.703 288.536C180.747 288.612 180.812 288.656 180.899 288.688H180.932C181.467 288.732 182.023 288.787 182.623 288.863C183.234 288.939 183.79 289.016 184.314 289.125C185.001 289.256 185.459 289.43 185.678 289.638C185.907 289.845 185.983 290.129 185.918 290.489C185.885 290.685 185.819 290.86 185.754 290.98C185.688 291.1 185.59 291.209 185.438 291.329C185.285 291.427 185.078 291.547 184.827 291.667C184.565 291.776 184.227 291.94 183.812 292.125L182.045 292.922C181.314 293.26 180.648 293.751 180.059 294.406C179.481 295.05 179.099 295.857 178.914 296.795L178.576 298.53C178.565 298.618 178.576 298.705 178.63 298.792C178.685 298.879 178.75 298.923 178.848 298.945L186.387 300.418C186.474 300.429 186.561 300.418 186.648 300.363C186.736 300.309 186.779 300.243 186.801 300.145L187.139 298.399C187.161 298.301 187.139 298.225 187.085 298.159C187.03 298.072 186.965 298.028 186.867 298.007L181.51 296.97V296.904C181.587 296.61 181.696 296.348 181.848 296.119C182.023 295.901 182.23 295.693 182.492 295.508C182.765 295.322 183.059 295.159 183.398 294.995C183.747 294.831 184.128 294.657 184.532 294.493L186.158 293.806C186.878 293.5 187.445 293.129 187.87 292.693C188.307 292.245 188.59 291.678 188.721 290.991L188.71 290.958ZM205.271 291.973L206.144 296.784L203.569 296.686L204.802 291.962C204.845 291.787 204.922 291.711 205.053 291.711C205.14 291.711 205.184 291.744 205.205 291.787C205.227 291.82 205.249 291.885 205.271 291.973ZM210.093 302.142V302.087L207.922 291.274C207.834 290.86 207.693 290.521 207.507 290.26C207.322 289.998 207.093 289.801 206.842 289.659C206.591 289.507 206.318 289.408 206.024 289.354C205.74 289.299 205.445 289.256 205.151 289.256C204.856 289.256 204.551 289.256 204.245 289.288C203.951 289.321 203.656 289.398 203.394 289.529C203.133 289.649 202.903 289.823 202.696 290.074C202.5 290.325 202.325 290.641 202.216 291.056L199.249 301.673C199.249 301.673 199.249 301.716 199.227 301.727V301.76C199.227 301.945 199.314 302.033 199.511 302.044L201.922 302.131C202.02 302.131 202.085 302.109 202.151 302.055C202.205 302 202.249 301.924 202.282 301.836L203.013 299.021L206.547 299.152L207.06 302.011C207.082 302.109 207.114 302.186 207.169 302.24C207.224 302.295 207.3 302.327 207.387 302.327L209.798 302.415C209.995 302.415 210.093 302.338 210.104 302.153C210.104 302.153 210.104 302.131 210.093 302.12V302.142ZM224.635 296.894L224.111 289.212C224.111 289.114 224.057 289.048 223.98 288.994C223.904 288.928 223.828 288.896 223.729 288.907L221.493 289.059C221.406 289.059 221.329 289.103 221.264 289.179C221.198 289.245 221.166 289.321 221.177 289.408L221.7 297.09C221.733 297.526 221.722 297.919 221.678 298.236C221.635 298.552 221.537 298.814 221.395 299.032C221.264 299.24 221.068 299.403 220.806 299.523C220.555 299.632 220.249 299.698 219.857 299.72C219.475 299.741 219.137 299.72 218.864 299.643C218.602 299.556 218.395 299.425 218.209 299.24C218.046 299.043 217.926 298.792 217.827 298.487C217.74 298.17 217.697 297.788 217.664 297.352L217.14 289.67C217.14 289.583 217.097 289.507 217.02 289.452C216.944 289.387 216.867 289.365 216.769 289.365L214.511 289.518C214.424 289.518 214.336 289.561 214.282 289.638C214.216 289.703 214.195 289.779 214.195 289.867L214.718 297.548C214.784 298.541 214.969 299.349 215.264 299.971C215.569 300.593 215.962 301.073 216.431 301.422C216.9 301.76 217.446 301.978 218.046 302.087C218.668 302.196 219.322 302.229 220.009 302.175C220.697 302.131 221.329 302.011 221.919 301.815C222.519 301.629 223.031 301.334 223.446 300.931C223.871 300.516 224.188 299.992 224.406 299.338C224.624 298.672 224.7 297.854 224.635 296.861V296.894ZM240.552 296.686L238.315 297.199C238.228 297.221 238.152 297.275 238.108 297.352C238.053 297.428 238.032 297.505 238.053 297.592L238.446 299.327C238.468 299.414 238.523 299.49 238.599 299.534C238.686 299.578 238.773 299.6 238.861 299.578L246.192 297.908C246.279 297.887 246.356 297.832 246.399 297.756C246.443 297.668 246.465 297.581 246.443 297.494L246.05 295.759C246.028 295.672 245.985 295.606 245.897 295.562C245.81 295.519 245.723 295.497 245.635 295.519L243.399 296.032L241.174 286.211C241.13 286.004 240.988 285.917 240.781 285.961L239.264 286.31C239.112 286.342 238.992 286.397 238.893 286.462L236.177 288.59C236.079 288.656 236.035 288.754 236.068 288.863L236.504 290.783C236.537 290.925 236.613 290.98 236.744 290.958C236.788 290.958 236.853 290.914 236.93 290.86L238.904 289.419L240.552 296.675H240.541L240.552 296.686ZM256.643 283.145L256.239 281.945C256.185 281.792 256.098 281.683 255.956 281.618C255.814 281.541 255.661 281.531 255.508 281.585L248.428 283.964C248.341 283.997 248.265 284.051 248.221 284.149C248.177 284.226 248.166 284.313 248.199 284.4L248.745 286.037C248.777 286.124 248.832 286.19 248.919 286.233C249.006 286.266 249.105 286.266 249.192 286.233L253.73 284.717C253.807 284.695 253.861 284.717 253.883 284.782C253.883 284.815 253.883 284.869 253.883 284.869L252.563 295.726C252.563 295.802 252.563 295.868 252.563 295.922C252.607 296.053 252.727 296.086 252.923 296.021L255.159 295.268C255.334 295.213 255.432 295.061 255.465 294.82L256.632 283.997C256.654 283.822 256.676 283.658 256.676 283.527C256.687 283.385 256.676 283.265 256.643 283.156V283.145ZM275.124 287.183L269.582 275.835C269.538 275.748 269.483 275.704 269.396 275.682C269.309 275.649 269.211 275.66 269.134 275.693L267.105 276.686C267.018 276.73 266.963 276.795 266.931 276.882C266.898 276.97 266.898 277.046 266.931 277.133L272.473 288.481C272.571 288.677 272.614 288.83 272.603 288.939C272.603 289.048 272.516 289.147 272.342 289.234L271.567 289.616C271.567 289.616 271.48 289.681 271.48 289.736C271.48 289.801 271.48 289.867 271.513 289.921L272.287 291.503C272.363 291.656 272.483 291.711 272.647 291.656C272.865 291.569 273.04 291.503 273.182 291.449C273.334 291.383 273.498 291.318 273.673 291.231C274.065 291.045 274.414 290.827 274.698 290.576C274.993 290.325 275.222 290.041 275.364 289.714C275.516 289.398 275.571 289.027 275.549 288.601C275.527 288.186 275.385 287.717 275.134 287.193L275.124 287.183ZM286.24 275.278L282.302 268.666C282.258 268.59 282.182 268.546 282.084 268.535C281.986 268.513 281.898 268.535 281.822 268.568L279.891 269.725C279.815 269.768 279.76 269.845 279.738 269.932C279.705 270.019 279.716 270.107 279.76 270.183L283.698 276.795C283.916 277.166 284.08 277.515 284.189 277.832C284.287 278.137 284.32 278.41 284.287 278.672C284.255 278.923 284.156 279.152 283.982 279.381C283.807 279.588 283.556 279.796 283.229 279.992C282.891 280.188 282.586 280.319 282.313 280.374C282.04 280.418 281.789 280.396 281.549 280.309C281.309 280.21 281.091 280.036 280.873 279.807C280.655 279.556 280.436 279.25 280.218 278.868L276.28 272.256C276.225 272.18 276.16 272.136 276.073 272.114C275.974 272.092 275.887 272.114 275.811 272.147L273.869 273.303C273.793 273.347 273.738 273.424 273.716 273.511C273.683 273.598 273.694 273.685 273.738 273.762L277.676 280.374C278.178 281.225 278.713 281.869 279.258 282.294C279.815 282.698 280.371 282.949 280.949 283.047C281.516 283.135 282.106 283.091 282.695 282.905C283.295 282.72 283.895 282.447 284.484 282.098C285.073 281.749 285.597 281.356 286.033 280.909C286.48 280.461 286.797 279.97 286.993 279.425C287.178 278.868 287.233 278.246 287.135 277.57C287.037 276.882 286.72 276.108 286.218 275.257H286.229L286.24 275.278ZM295.557 274.209L288.477 264.313C288.346 264.127 288.193 264.105 288.018 264.236L286.142 265.589C285.967 265.709 285.957 265.862 286.077 266.037L293.157 275.933C293.211 276.009 293.277 276.053 293.364 276.075C293.451 276.097 293.528 276.075 293.604 276.031L295.48 274.678C295.557 274.624 295.6 274.547 295.6 274.46C295.611 274.362 295.6 274.275 295.546 274.198L295.557 274.209ZM305.703 265.993L304.677 264.76C304.622 264.684 304.546 264.651 304.448 264.64C304.35 264.64 304.262 264.651 304.197 264.716L301.917 266.615C301.611 266.877 301.339 266.997 301.099 266.986C300.859 266.964 300.608 266.768 300.313 266.429L294.608 259.555C294.553 259.49 294.477 259.446 294.379 259.435C294.28 259.435 294.193 259.457 294.128 259.512L292.393 260.963C292.317 261.028 292.284 261.105 292.273 261.203C292.273 261.301 292.284 261.388 292.349 261.454L298.055 268.328C298.557 268.928 299.048 269.354 299.539 269.583C300.03 269.812 300.499 269.899 300.957 269.866C301.426 269.823 301.884 269.67 302.332 269.419C302.79 269.157 303.237 268.852 303.652 268.492C303.837 268.339 304.022 268.186 304.208 268.001C304.404 267.826 304.59 267.641 304.764 267.466C304.95 267.281 305.135 267.095 305.288 266.931C305.452 266.768 305.572 266.626 305.659 266.506C305.801 266.32 305.812 266.157 305.692 266.004L305.703 265.993ZM314.43 257.613L313.306 256.467C313.241 256.402 313.165 256.369 313.066 256.369C312.968 256.369 312.881 256.402 312.815 256.467L310.699 258.552C310.415 258.835 310.154 258.977 309.914 258.988C309.684 258.988 309.401 258.813 309.084 258.497L302.822 252.114C302.757 252.048 302.681 252.016 302.582 252.016C302.484 252.016 302.408 252.048 302.342 252.114L300.728 253.696C300.662 253.761 300.63 253.838 300.63 253.936C300.63 254.034 300.662 254.122 300.728 254.187L306.99 260.57C307.546 261.127 308.07 261.508 308.583 261.694C309.084 261.879 309.564 261.934 310.023 261.858C310.481 261.77 310.939 261.585 311.354 261.301C311.79 261.007 312.205 260.657 312.597 260.275C312.761 260.112 312.935 259.937 313.11 259.741C313.295 259.544 313.459 259.359 313.623 259.163C313.797 258.966 313.95 258.77 314.103 258.595C314.255 258.421 314.365 258.268 314.441 258.148C314.572 257.962 314.572 257.788 314.441 257.646L314.43 257.613ZM322.721 248.197L321.499 247.149C321.423 247.095 321.347 247.062 321.248 247.073C321.15 247.084 321.074 247.117 321.008 247.193L318.739 249.866C318.477 250.172 318.226 250.335 317.997 250.368C317.757 250.368 317.474 250.237 317.136 249.943L315.75 248.753L318.641 245.338C318.696 245.262 318.728 245.185 318.717 245.087C318.717 244.989 318.674 244.912 318.597 244.847L317.354 243.778C317.277 243.723 317.201 243.69 317.103 243.701C317.005 243.712 316.928 243.745 316.863 243.821L313.972 247.237L312.772 246.222C312.434 245.938 312.248 245.665 312.226 245.447C312.205 245.207 312.324 244.934 312.586 244.618L314.855 241.945C314.921 241.868 314.943 241.792 314.932 241.694C314.932 241.595 314.888 241.519 314.812 241.454L313.59 240.406C313.448 240.286 313.285 240.297 313.11 240.45C313.001 240.548 312.87 240.668 312.728 240.799C312.586 240.919 312.434 241.083 312.237 241.268C312.052 241.454 311.834 241.683 311.594 241.945C311.354 242.196 311.081 242.49 310.786 242.839C310.426 243.265 310.121 243.701 309.848 244.149C309.586 244.596 309.434 245.054 309.39 245.523C309.346 245.982 309.434 246.462 309.652 246.953C309.87 247.444 310.274 247.946 310.874 248.448L315.237 252.168C315.837 252.681 316.394 253.009 316.917 253.15C317.43 253.292 317.921 253.303 318.368 253.183C318.826 253.052 319.252 252.823 319.645 252.507C320.037 252.179 320.419 251.808 320.779 251.383C321.39 250.674 321.827 250.106 322.099 249.692C322.394 249.277 322.623 248.939 322.776 248.677C322.896 248.48 322.885 248.306 322.721 248.175V248.197ZM322.525 231.012L321.074 229.986C320.997 229.931 320.91 229.92 320.823 229.953C320.725 229.964 320.648 230.019 320.605 230.095L315.674 237.111C315.619 237.187 315.597 237.275 315.619 237.373C315.619 237.46 315.663 237.536 315.739 237.591L317.19 238.617C317.266 238.671 317.354 238.693 317.452 238.671C317.539 238.649 317.616 238.595 317.659 238.518L319.274 236.216L327.489 242.021C327.565 242.076 327.652 242.097 327.75 242.076C327.838 242.065 327.925 242.01 327.969 241.934L329.267 240.079C329.321 240.002 329.343 239.915 329.321 239.817C329.299 239.719 329.256 239.642 329.179 239.588L320.965 233.783L322.568 231.492C322.623 231.415 322.645 231.328 322.634 231.241C322.634 231.142 322.579 231.055 322.503 231.001L322.525 231.012ZM114.516 77.1958L114.679 77.3159C115.138 77.6868 115.421 78.1233 115.519 78.6361C115.607 79.138 115.432 79.6509 115.007 80.1746L114.865 80.3492C114.439 80.8838 113.981 81.1566 113.468 81.1784C112.945 81.2003 112.454 81.0257 111.985 80.6547L111.821 80.5347C111.647 80.3928 111.483 80.2182 111.352 80.0218C111.21 79.8145 111.101 79.6072 111.057 79.389C111.003 79.1599 111.003 78.9198 111.057 78.6689C111.101 78.4179 111.243 78.156 111.45 77.8942L111.843 77.4032C112.05 77.1413 112.279 76.9558 112.519 76.8467C112.748 76.7376 112.977 76.683 113.207 76.6939C113.436 76.6939 113.665 76.7376 113.905 76.8358C114.123 76.9231 114.33 77.0431 114.505 77.1849L114.516 77.1958ZM109.628 73.2896L109.705 73.3551C110.108 73.6715 110.348 74.0534 110.425 74.5008C110.49 74.9372 110.327 75.4064 109.934 75.8974L109.541 76.3884C109.148 76.8794 108.723 77.1413 108.286 77.174C107.839 77.1958 107.414 77.0431 107.01 76.7267L106.934 76.6612C106.508 76.3229 106.268 75.9301 106.192 75.4719C106.105 75.0136 106.301 74.4898 106.77 73.9116L106.912 73.737C107.381 73.1587 107.85 72.8532 108.319 72.8313C108.777 72.7986 109.225 72.9514 109.639 73.2896H109.628ZM116.85 74.7735L116.643 74.6099C116.108 74.1843 115.53 73.9334 114.887 73.8352C114.254 73.737 113.632 73.7588 113.021 73.9225C113.119 72.5804 112.672 71.522 111.679 70.7255L111.505 70.5836C110.948 70.1472 110.392 69.8635 109.825 69.7326C109.257 69.5907 108.701 69.6016 108.134 69.7653C107.577 69.918 107.032 70.1908 106.486 70.6054C105.941 70.9983 105.417 71.5111 104.915 72.133L104.774 72.3076C104.272 72.9295 103.879 73.5515 103.606 74.1843C103.323 74.7954 103.17 75.3846 103.148 75.952C103.126 76.5193 103.235 77.0649 103.486 77.5996C103.748 78.1233 104.152 78.6034 104.697 79.0398L104.872 79.1817C105.875 79.9782 107.01 80.1855 108.286 79.7927C108.265 80.4365 108.363 81.0475 108.592 81.6476C108.832 82.2368 109.214 82.7387 109.748 83.1643L109.956 83.328C110.523 83.7862 111.112 84.0808 111.723 84.2445C112.323 84.3754 112.923 84.3754 113.512 84.2445C114.101 84.1136 114.679 83.8626 115.247 83.4807C115.814 83.0879 116.348 82.5751 116.839 81.9531L116.981 81.7786C117.483 81.1566 117.865 80.5347 118.116 79.9127C118.378 79.269 118.498 78.6361 118.498 78.036C118.498 77.4359 118.367 76.8576 118.094 76.312C117.821 75.7446 117.396 75.2318 116.828 74.7845L116.85 74.7735ZM120.538 58.854C120.538 58.854 120.429 58.7668 120.341 58.7668L117.352 58.3303C117.21 58.3194 117.101 58.3303 117.025 58.3303C116.948 58.3303 116.85 58.374 116.752 58.4831L114.81 60.3271C114.712 60.4253 114.679 60.5126 114.745 60.5889C114.778 60.6326 114.843 60.6544 114.919 60.6544L118.432 60.7417C118.541 60.7417 118.639 60.7417 118.705 60.7417C118.77 60.7417 118.858 60.6871 118.956 60.5889L120.527 59.0941C120.614 59.0068 120.625 58.9304 120.56 58.865L120.538 58.854ZM124.465 63.5568L121.781 66.0991L121.727 66.0446C121.214 65.5099 120.952 64.9862 120.93 64.4733C120.92 63.9714 121.116 63.5241 121.53 63.1313C121.945 62.7384 122.392 62.5748 122.894 62.6184C123.385 62.6621 123.887 62.9567 124.411 63.5022L124.465 63.5568ZM127.869 62.4766L127.051 61.6255C126.516 61.069 125.949 60.6217 125.349 60.3052C124.76 59.9779 124.149 59.7815 123.505 59.7269C122.872 59.6724 122.229 59.7706 121.585 60.0106C120.941 60.2398 120.319 60.6435 119.73 61.2109C119.141 61.7673 118.705 62.3566 118.421 62.9785C118.127 63.5895 117.974 64.2224 117.963 64.8552C117.963 65.4881 118.116 66.1209 118.399 66.7538C118.683 67.3866 119.109 67.9977 119.676 68.5869L120.658 69.6125C121.323 70.3218 122 70.8128 122.687 71.0965C123.363 71.3802 124.018 71.4893 124.651 71.4456C125.283 71.402 125.883 71.2383 126.451 70.9437C127.007 70.6491 127.52 70.2999 127.956 69.8744C128.6 69.2634 129.112 68.7287 129.516 68.2377C129.909 67.7467 130.291 67.223 130.651 66.6665C130.749 66.5137 130.792 66.3937 130.771 66.2955C130.749 66.1973 130.683 66.0991 130.574 65.9791L129.516 64.8661C129.363 64.7134 129.2 64.7243 129.014 64.8989L128.971 64.9425C128.84 65.1062 128.676 65.3026 128.469 65.5317C128.251 65.75 128.011 65.99 127.76 66.2628C127.509 66.5137 127.269 66.7647 127.007 67.0266C126.756 67.2884 126.505 67.5285 126.265 67.7576C125.971 68.0413 125.687 68.2268 125.403 68.325C125.131 68.4123 124.869 68.445 124.607 68.4123C124.345 68.3796 124.105 68.2814 123.865 68.1286C123.625 67.9758 123.407 67.8013 123.221 67.5939L123.2 67.5612L127.902 63.1094C128.109 62.913 128.098 62.7057 127.88 62.4657H127.891L127.869 62.4766ZM148.16 53.5075L144.222 47.8337C143.84 47.2881 143.447 46.8299 143.044 46.448C142.64 46.0552 142.215 45.7824 141.778 45.6187C141.342 45.4441 140.873 45.4005 140.371 45.4769C139.88 45.5532 139.356 45.7824 138.811 46.1534C138.538 46.3389 138.298 46.5243 138.091 46.7208C137.895 46.9062 137.709 47.1026 137.534 47.3209C137.36 47.5391 137.218 47.7682 137.076 48.0301C136.934 48.2811 136.793 48.5538 136.629 48.8594C136.193 48.7284 135.778 48.7175 135.364 48.8157C134.96 48.903 134.534 49.0885 134.087 49.394C133.596 49.7323 133.214 50.1251 132.92 50.5615C132.625 50.998 132.374 51.4453 132.178 51.9254L131.927 51.5544C131.862 51.4671 131.774 51.4126 131.665 51.3908C131.556 51.3689 131.447 51.3908 131.36 51.4562L129.451 52.7656C129.363 52.831 129.309 52.9183 129.287 53.0274C129.265 53.1366 129.287 53.2457 129.352 53.333L135.494 62.1929C135.56 62.2802 135.647 62.3456 135.767 62.3784C135.887 62.3893 135.996 62.3784 136.084 62.302L138.113 60.9054C138.2 60.8399 138.255 60.7526 138.276 60.6435C138.287 60.5235 138.276 60.4144 138.2 60.3271L133.607 53.693C133.771 53.3875 133.934 53.1147 134.087 52.8965C134.262 52.6674 134.425 52.4928 134.578 52.3837C134.971 52.1109 135.298 52.0345 135.56 52.1545C135.833 52.2418 136.138 52.5692 136.509 53.0929L140.447 58.7668C140.513 58.854 140.6 58.9195 140.72 58.9522C140.84 58.9632 140.949 58.9522 141.036 58.8759L143.066 57.4792C143.153 57.4138 143.207 57.3265 143.229 57.2174C143.24 57.0973 143.229 56.9882 143.153 56.9009L139.215 51.2271C138.942 50.8452 138.68 50.4851 138.418 50.1796C138.593 49.885 138.778 49.6341 138.975 49.4486C139.182 49.2412 139.356 49.0885 139.498 48.9903C139.891 48.7175 140.229 48.6411 140.513 48.7393C140.796 48.8266 141.113 49.143 141.484 49.6668L145.422 55.3406C145.487 55.4279 145.575 55.4934 145.695 55.5261C145.804 55.5479 145.913 55.5261 146 55.4607L148.029 54.064C148.117 53.9985 148.171 53.9113 148.193 53.8021C148.215 53.6712 148.193 53.5621 148.138 53.4748L148.16 53.5075ZM156.92 41.7998L156.953 41.8762L153.615 43.4801L153.582 43.4037C153.255 42.7381 153.168 42.1599 153.309 41.6688C153.451 41.1778 153.779 40.8178 154.291 40.5668C154.804 40.3159 155.295 40.294 155.753 40.4904C156.2 40.6759 156.593 41.1124 156.92 41.7889V41.7998ZM160.51 41.8543L159.997 40.7959C159.659 40.1085 159.255 39.5084 158.786 39.0283C158.328 38.5373 157.793 38.1663 157.215 37.9154C156.626 37.6644 155.993 37.5662 155.295 37.599C154.619 37.6208 153.909 37.8172 153.157 38.1773C152.426 38.5264 151.826 38.9629 151.368 39.4648C150.898 39.9558 150.56 40.5123 150.353 41.1233C150.168 41.7234 150.102 42.3781 150.189 43.0655C150.277 43.7638 150.484 44.473 150.833 45.2041L151.455 46.4807C151.88 47.3536 152.371 48.0301 152.939 48.5102C153.495 48.9794 154.073 49.2849 154.695 49.4377C155.317 49.5904 155.928 49.6231 156.56 49.514C157.182 49.4049 157.771 49.2194 158.317 48.9576C159.113 48.5757 159.779 48.2156 160.302 47.8664C160.837 47.5282 161.35 47.1354 161.873 46.7098C162.015 46.6007 162.091 46.4916 162.102 46.3934C162.102 46.2952 162.091 46.1752 162.015 46.0224L161.35 44.6367C161.262 44.4403 161.088 44.3967 160.859 44.5167L160.804 44.5385C160.63 44.6476 160.411 44.7895 160.15 44.9422C159.877 45.0841 159.571 45.2477 159.244 45.4114C158.939 45.5751 158.611 45.7497 158.295 45.9133C157.968 46.0879 157.662 46.2407 157.368 46.3825C156.997 46.568 156.67 46.6553 156.375 46.6553C156.091 46.6553 155.83 46.6007 155.6 46.4916C155.371 46.3825 155.164 46.2188 154.979 46.0006C154.793 45.7824 154.651 45.5532 154.52 45.2914V45.2586L160.357 42.4545C160.619 42.3344 160.673 42.1271 160.531 41.8325L160.51 41.8543ZM179.776 21.1666L177.19 21.8104C177.048 21.8431 176.95 21.8977 176.896 21.9741C176.852 22.0286 176.797 22.1159 176.732 22.2468L175.466 25.0074C175.434 25.0838 175.423 25.1601 175.434 25.2256C175.455 25.3238 175.521 25.3456 175.641 25.3238L177.757 24.8001C177.888 24.7673 177.976 24.7237 178.019 24.6691C178.063 24.6146 178.106 24.5382 178.172 24.44L179.983 21.4394C180.027 21.3739 180.037 21.3194 180.027 21.2648C180.005 21.1775 179.917 21.1448 179.776 21.1775V21.1666ZM185.438 38.941L184.979 37.1079C184.958 36.9988 184.892 36.9225 184.794 36.857C184.696 36.7915 184.598 36.7806 184.488 36.8134L180.485 37.8172C180.027 37.9263 179.666 37.9154 179.426 37.7844C179.197 37.6317 179.012 37.3044 178.881 36.7915L178.357 34.7075L183.463 33.4309C183.572 33.409 183.648 33.3436 183.714 33.2454C183.779 33.1472 183.79 33.049 183.768 32.9399L183.299 31.074C183.278 30.9649 183.212 30.8885 183.114 30.8231C183.016 30.7685 182.917 30.7467 182.808 30.7794L177.703 32.056L177.256 30.2666C177.125 29.7538 177.136 29.3828 177.266 29.1537C177.419 28.9027 177.725 28.7281 178.183 28.6081L182.187 27.6043C182.296 27.5824 182.372 27.517 182.437 27.4188C182.503 27.3206 182.514 27.2224 182.492 27.1133L182.034 25.2802C181.979 25.0619 181.816 24.9637 181.543 24.9856C181.357 24.9965 181.161 25.0183 180.932 25.051C180.714 25.0729 180.452 25.1165 180.147 25.1601C179.841 25.2038 179.481 25.2802 179.066 25.3675C178.663 25.4438 178.205 25.542 177.681 25.673C177.048 25.8257 176.448 26.033 175.881 26.284C175.325 26.535 174.866 26.8623 174.495 27.2769C174.135 27.6806 173.895 28.1935 173.765 28.8154C173.634 29.4374 173.688 30.1902 173.906 31.074L175.532 37.599C175.75 38.4937 176.066 39.1811 176.47 39.683C176.874 40.1631 177.321 40.5123 177.834 40.6977C178.357 40.8832 178.925 40.9705 179.525 40.9269C180.125 40.8941 180.747 40.796 181.379 40.6323C182.448 40.3595 183.245 40.1304 183.801 39.9231C184.368 39.7266 184.816 39.563 185.143 39.4211C185.405 39.3229 185.492 39.1484 185.438 38.9083V38.941ZM198.692 28.6299L198.965 31.2268C199.042 31.9142 199.031 32.4816 198.922 32.9399C198.834 33.3981 198.671 33.7691 198.431 34.0746C198.202 34.3583 197.907 34.5765 197.558 34.7184C197.198 34.8493 196.794 34.9475 196.336 34.9912C196.074 35.0239 195.812 35.0457 195.529 35.0785C195.256 35.0894 195.049 35.1003 194.896 35.1003L193.903 25.6948C194.045 25.6621 194.263 25.6402 194.525 25.6075C194.809 25.5639 195.081 25.5202 195.332 25.4984C195.791 25.4548 196.205 25.4657 196.587 25.5311C196.958 25.5857 197.296 25.7275 197.58 25.9785C197.874 26.2076 198.114 26.535 198.3 26.9605C198.496 27.386 198.627 27.9425 198.703 28.6299H198.692ZM202.402 30.8558L202.129 28.2589C202.02 27.2005 201.769 26.2949 201.387 25.5311C201.005 24.7564 200.514 24.1345 199.903 23.6762C199.292 23.1961 198.583 22.8688 197.754 22.7051C196.925 22.5196 196.009 22.4869 195.005 22.596C194.58 22.6397 194.165 22.6942 193.729 22.7706C193.314 22.8251 192.91 22.8906 192.529 22.9561C192.158 23.0215 191.809 23.087 191.492 23.1634C191.187 23.2179 190.936 23.2834 190.74 23.3489C190.554 23.3925 190.412 23.4798 190.314 23.5998C190.227 23.7199 190.205 23.8944 190.227 24.1236L191.634 37.4353C191.656 37.6644 191.721 37.8281 191.83 37.9263C191.95 38.0245 192.103 38.0791 192.3 38.0791C192.507 38.1009 192.769 38.1118 193.085 38.1227C193.412 38.1227 193.761 38.1118 194.143 38.09C194.536 38.09 194.951 38.0572 195.365 38.0245C195.801 38.0027 196.227 37.9699 196.641 37.9263C197.656 37.8172 198.54 37.599 199.314 37.2607C200.078 36.9116 200.711 36.4424 201.213 35.8641C201.703 35.2749 202.063 34.5656 202.271 33.7364C202.478 32.8962 202.533 31.9469 202.423 30.8885H202.413L202.402 30.8558ZM212.875 22.3341C212.875 22.0832 212.755 21.9522 212.493 21.9522L209.765 21.9304C209.525 21.9304 209.395 22.0504 209.395 22.3123L209.231 36.5733C209.231 36.6824 209.264 36.7697 209.329 36.857C209.395 36.9443 209.482 36.977 209.591 36.977L212.318 36.9988C212.427 36.9988 212.515 36.9661 212.591 36.8788C212.678 36.7915 212.711 36.7042 212.711 36.5951L212.875 22.3341ZM231.028 23.8399C231.039 23.7308 231.006 23.6435 230.919 23.5562C230.842 23.458 230.755 23.4143 230.646 23.4034L220.631 22.2359C220.522 22.2359 220.424 22.2468 220.337 22.3232C220.249 22.3778 220.195 22.4651 220.184 22.5742L219.933 24.6473C219.933 24.7455 219.944 24.8546 220.02 24.9419C220.097 25.0183 220.184 25.0619 220.293 25.0729L223.588 25.4548L222.191 37.1625C222.191 37.2607 222.202 37.3589 222.279 37.4571C222.355 37.5444 222.442 37.599 222.551 37.6099L225.191 37.9154C225.3 37.9154 225.399 37.9045 225.486 37.8281C225.584 37.7517 225.628 37.6644 225.639 37.5553L227.035 25.8476L230.308 26.2294C230.417 26.2404 230.515 26.2294 230.602 26.164C230.701 26.0985 230.766 26.0112 230.777 25.9021L231.028 23.829V23.8399ZM241.392 26.0003C241.446 25.7494 241.359 25.5966 241.108 25.542L238.446 24.9419C238.206 24.8874 238.064 24.9856 237.999 25.2365L234.792 39.1374C234.77 39.2356 234.792 39.3448 234.824 39.432C234.879 39.5193 234.944 39.5848 235.053 39.6066L237.704 40.2067C237.803 40.2286 237.901 40.2067 237.988 40.1413C238.086 40.0867 238.152 39.9994 238.173 39.8903L241.381 25.9894L241.392 26.0003ZM254.374 38.6683C253.959 39.8248 253.458 40.5886 252.89 40.9596C252.323 41.3306 251.636 41.3742 250.839 41.0906C250.032 40.8069 249.53 40.3486 249.334 39.7048C249.137 39.0611 249.246 38.1554 249.65 36.9988L250.468 34.7293C250.883 33.5727 251.374 32.8089 251.941 32.427C252.508 32.056 253.196 32.0124 253.992 32.2961C254.788 32.5798 255.301 33.0381 255.498 33.6818C255.716 34.3256 255.607 35.2312 255.203 36.3878L254.385 38.6573L254.374 38.6683ZM257.658 39.8467L258.476 37.5771C258.869 36.4642 259.065 35.4713 259.043 34.5984C259.032 33.7146 258.858 32.9399 258.509 32.2852C258.181 31.6087 257.701 31.0413 257.09 30.583C256.479 30.1138 255.792 29.732 254.996 29.4592C254.199 29.1755 253.425 29.0336 252.65 29.0118C251.887 28.99 251.156 29.1318 250.468 29.4483C249.792 29.7538 249.159 30.2339 248.592 30.9104C248.025 31.576 247.534 32.4707 247.141 33.5836L246.323 35.8532C245.93 36.9661 245.734 37.959 245.755 38.8319C245.766 39.7157 245.941 40.4904 246.279 41.1669C246.617 41.8325 247.086 42.3999 247.697 42.8691C248.308 43.3274 249.006 43.6983 249.803 43.982C250.599 44.2548 251.374 44.4185 252.137 44.4403C252.912 44.4512 253.632 44.3094 254.319 44.0039C255.007 43.6874 255.639 43.1855 256.207 42.5199C256.774 41.8543 257.265 40.9596 257.658 39.8467ZM271.807 53.082L278.396 40.8287C278.451 40.7414 278.451 40.6432 278.407 40.545C278.375 40.4359 278.32 40.3595 278.222 40.3049L276.105 39.1811C276.007 39.1265 275.909 39.1265 275.8 39.1593C275.702 39.1811 275.614 39.2356 275.571 39.3338L271.502 46.8953C271.447 47.0044 271.393 47.0372 271.327 47.0044C271.294 46.9935 271.273 46.9172 271.262 46.7862L270.978 37.1625C270.978 36.9116 270.934 36.7151 270.88 36.5842C270.825 36.4315 270.705 36.3114 270.52 36.2132L268.709 35.253C268.523 35.1548 268.327 35.133 268.12 35.1876C267.912 35.253 267.76 35.3731 267.662 35.5586L261.083 47.7901C261.029 47.8883 261.029 47.9865 261.061 48.0956C261.094 48.2047 261.149 48.2811 261.247 48.3356L263.363 49.4595C263.461 49.514 263.56 49.514 263.669 49.4813C263.778 49.4486 263.854 49.394 263.909 49.2958L267.803 42.0617C267.858 41.9744 267.902 41.9416 267.967 41.9744C268.011 41.9962 268.043 42.0726 268.054 42.2035L268.349 51.4126C268.36 51.729 268.425 51.9581 268.534 52.1109C268.643 52.2418 268.796 52.3619 268.992 52.471L270.749 53.4093C270.945 53.5075 271.142 53.5294 271.338 53.4748C271.545 53.4202 271.709 53.3002 271.807 53.1038V53.082Z" fill="#010765"></path></svg>